<?xml version="1.0" standalone="no"?>
<!DOCTYPE svg PUBLIC "-//W3C//DTD SVG 20010904//EN"
 "http://www.w3.org/TR/2001/REC-SVG-20010904/DTD/svg10.dtd">
<svg version="1.0" xmlns="http://www.w3.org/2000/svg"
 width="720.000000pt" height="480.000000pt" viewBox="0 0 720.000000 480.000000"
 preserveAspectRatio="xMidYMid meet">

<g transform="translate(0.000000,480.000000) scale(0.100000,-0.100000)"
fill="#000000" stroke="none">
<path d="M4120 4055 c-19 -7 -36 -20 -38 -29 -2 -9 -8 -16 -13 -16 -5 0 -1 -9
8 -20 10 -11 30 -20 46 -20 21 0 30 -6 34 -20 5 -19 6 -19 18 -4 9 13 14 14
19 5 4 -6 2 -19 -5 -27 -10 -12 -9 -18 3 -31 15 -14 18 -13 33 11 10 14 20 45
22 69 9 75 -48 112 -127 82z"/>
<path d="M3826 3968 c-21 -33 -30 -92 -17 -117 15 -26 33 -27 56 -1 18 20 18
21 0 34 -21 15 -14 46 10 46 12 0 15 8 13 28 -4 36 -41 43 -62 10z"/>
<path d="M3448 3954 c-30 -16 -58 -61 -58 -94 0 -29 26 -76 52 -94 30 -21 98
-21 98 -1 0 11 -11 15 -35 15 -46 0 -85 37 -85 80 0 69 91 107 138 58 29 -32
36 -69 18 -93 -15 -19 -15 -18 -16 21 0 67 -56 98 -100 54 -38 -38 -13 -100
41 -100 16 0 38 -5 49 -12 31 -20 60 14 60 70 0 37 -6 50 -34 78 -38 38 -81
44 -128 18z m80 -90 c4 -30 -20 -47 -43 -31 -12 10 -15 20 -10 36 9 29 49 25
53 -5z"/>
<path d="M3904 3931 c-1 -22 -9 -54 -17 -70 l-15 -31 33 0 c19 0 37 -4 40 -10
3 -5 9 -10 13 -10 15 0 42 59 42 89 0 28 -5 34 -46 51 -25 11 -46 20 -47 20
-1 0 -3 -18 -3 -39z"/>
<path d="M4030 3871 c0 -25 6 -27 13 -6 4 8 2 17 -3 20 -6 4 -10 -3 -10 -14z"/>
<path d="M4066 3735 c-19 -41 -37 -75 -40 -75 -3 0 -15 18 -26 41 -15 28 -26
39 -36 35 -9 -3 -20 -6 -25 -6 -5 0 0 -23 11 -52 24 -64 67 -111 95 -104 20 5
20 1 20 -217 0 -122 2 -292 5 -377 3 -91 1 -157 -4 -160 -5 -3 -11 11 -13 30
-6 55 -52 120 -103 148 -87 46 -204 14 -254 -70 -13 -22 -38 -48 -55 -59 -31
-18 -55 -61 -48 -83 2 -6 -10 -17 -27 -26 -20 -10 -34 -27 -41 -47 l-9 -33
-104 0 c-119 0 -142 -8 -142 -50 l0 -30 270 0 c233 0 270 2 270 15 0 25 22 17
62 -22 l38 -37 0 37 0 37 70 0 c57 0 74 4 90 20 28 28 27 84 -2 104 -22 16
-21 16 23 16 l45 0 13 129 c7 71 12 157 10 192 -3 63 7 195 18 234 5 17 113
-444 113 -482 0 -7 -9 -13 -19 -13 -37 0 -31 -17 12 -34 66 -25 79 -22 73 17
-3 17 -8 74 -11 125 -4 52 -13 115 -20 140 -7 26 -16 120 -19 210 -6 138 -4
162 8 162 44 0 60 204 21 280 -37 74 -85 101 -115 65 -11 -14 -15 -14 -32 2
-16 14 -23 15 -39 5 -11 -7 -19 -8 -19 -2 0 5 -7 10 -15 10 -8 0 -29 -31 -49
-75z m-179 -799 c-3 -8 1 -17 10 -20 13 -5 13 -9 2 -23 -12 -15 -12 -16 3 -10
10 3 28 2 40 -3 21 -8 21 -9 -8 -9 -47 -1 -67 -21 -55 -54 7 -19 18 -27 35
-27 27 0 36 -16 36 -66 0 -30 -5 -37 -35 -50 -38 -15 -93 -18 -113 -6 -13 9
-5 38 20 74 10 14 9 21 -10 38 -12 12 -37 24 -55 27 -30 4 -33 3 -32 -19 0
-14 6 -32 13 -41 8 -9 12 -22 10 -29 -3 -8 -11 -2 -22 14 -23 35 -14 131 11
121 10 -4 14 0 11 13 -2 13 10 25 42 42 25 13 47 28 48 33 2 5 15 9 29 9 18 0
24 -4 20 -14z"/>
<path d="M3940 3765 c-10 -12 -10 -15 4 -15 9 0 16 7 16 15 0 8 -2 15 -4 15
-2 0 -9 -7 -16 -15z"/>
<path d="M3177 3625 c-141 -50 -156 -249 -24 -316 73 -38 162 -24 213 33 34
37 44 63 44 118 0 79 -37 133 -112 165 -45 18 -71 18 -121 0z m41 -124 c2 -11
-1 -21 -7 -21 -6 0 -11 6 -11 14 0 8 -6 16 -12 19 -19 6 -38 -3 -38 -19 0 -8
-4 -14 -10 -14 -18 0 -11 28 11 44 27 19 63 7 67 -23z m112 19 c19 -19 27 -40
15 -40 -3 0 -15 10 -27 22 l-21 21 -18 -21 c-20 -26 -29 -28 -29 -8 0 14 36
46 52 46 5 0 17 -9 28 -20z m0 -90 c0 -6 -7 -24 -15 -39 -16 -33 -59 -51 -99
-44 -30 6 -66 46 -66 74 0 17 9 19 90 19 56 0 90 -4 90 -10z"/>
<path d="M2310 3490 c0 -27 34 -44 60 -30 11 6 20 20 20 30 0 17 -7 20 -40 20
-33 0 -40 -3 -40 -20z"/>
<path d="M2713 3470 c-39 -23 -53 -48 -53 -93 0 -71 76 -121 143 -94 44 19 67
52 67 97 0 42 -20 75 -60 95 -38 20 -59 19 -97 -5z m73 -51 c43 -26 43 -48 -1
-78 -48 -33 -65 -23 -65 37 0 69 10 76 66 41z"/>
<path d="M3875 3398 c-56 -33 -59 -83 -10 -156 20 -28 41 -52 48 -52 20 0 77
102 77 137 0 58 -67 100 -115 71z"/>
<path d="M2300 3386 c-18 -18 -10 -44 20 -66 32 -23 50 -19 83 18 16 17 15 50
-2 53 -37 6 -93 3 -101 -5z"/>
<path d="M2279 3236 c-17 -8 -25 -21 -27 -47 -3 -34 1 -39 47 -69 l51 -32 49
31 c27 18 51 41 54 53 12 45 -35 84 -80 67 -13 -5 -33 -5 -46 0 -16 6 -32 5
-48 -3z"/>
<path d="M2545 3105 c-46 -46 -65 -57 -127 -75 -142 -42 -169 -58 -194 -117
-41 -95 23 -200 139 -228 l27 -7 0 71 0 71 41 0 c22 0 38 -3 36 -8 -3 -4 -6
-27 -8 -52 -2 -25 -9 -56 -16 -70 -19 -37 -16 -56 16 -92 15 -18 36 -48 45
-66 14 -27 20 -31 31 -22 8 6 25 13 39 14 31 4 123 62 136 87 39 72 -39 158
-105 115 -20 -13 -28 -14 -45 -4 -23 15 -24 23 -9 65 10 29 14 31 72 36 74 5
118 -10 143 -50 10 -15 20 -30 22 -33 6 -8 22 24 22 46 0 29 -30 54 -74 61
-32 5 -52 23 -25 23 18 0 110 49 143 76 34 28 96 102 96 114 0 23 -36 16 -78
-17 -59 -46 -138 -83 -176 -83 -29 0 -29 0 -11 20 12 14 20 41 23 79 5 72 -16
101 -73 101 -30 0 -45 -9 -90 -55z m155 -30 c0 -26 -4 -35 -17 -36 -11 0 -13
-3 -5 -6 23 -9 13 -33 -14 -33 -24 0 -26 -3 -21 -30 5 -23 3 -28 -8 -23 -9 3
-22 0 -29 -6 -9 -8 -16 -8 -20 -2 -4 5 -2 12 4 16 5 3 10 25 10 48 0 72 20 94
93 106 4 0 7 -15 7 -34z"/>
<path d="M5440 2831 l0 -79 60 -20 60 -21 0 84 0 84 -54 15 c-30 9 -57 16 -60
16 -3 0 -6 -36 -6 -79z m70 9 c5 8 12 11 16 7 4 -3 2 -12 -4 -20 -6 -7 -8 -24
-5 -38 6 -21 5 -22 -10 -11 -9 8 -20 11 -24 9 -5 -3 -9 13 -9 36 -1 38 0 39
13 21 12 -16 15 -17 23 -4z"/>
<path d="M2905 2834 c-13 -33 -16 -128 -4 -157 22 -53 111 -75 155 -39 82 66
40 192 -64 192 -15 0 -34 -5 -42 -10 -11 -7 -18 -4 -26 12 -10 19 -11 20 -19
2z"/>
<path d="M4735 2840 c-4 -6 -27 -20 -52 -31 -43 -18 -44 -20 -38 -51 4 -18 22
-49 41 -68 l35 -35 22 26 c12 15 30 36 40 48 12 15 24 20 35 15 43 -18 67 -15
92 11 32 34 20 53 -45 72 -75 22 -122 27 -130 13z"/>
<path d="M1707 2816 c-46 -17 -71 -36 -59 -48 4 -4 26 1 47 12 51 26 124 26
176 0 42 -22 69 -19 49 5 -16 19 -97 45 -139 45 -20 -1 -53 -7 -74 -14z"/>
<path d="M1708 2754 c-16 -8 -28 -19 -28 -24 0 -13 3 -13 59 6 43 14 52 14 92
0 52 -18 59 -19 59 -6 0 35 -131 52 -182 24z"/>
<path d="M1734 2696 c-27 -20 -11 -31 24 -17 22 9 35 9 55 0 15 -7 30 -9 35
-5 12 12 -29 36 -63 36 -17 0 -40 -6 -51 -14z"/>
<path d="M1739 2622 c-40 -41 -59 -72 -59 -97 0 -9 171 -323 381 -698 258
-463 391 -692 414 -713 19 -17 52 -36 73 -42 50 -15 629 -17 667 -2 17 6 33
26 46 56 l20 45 -24 47 c-14 26 -147 265 -297 532 -230 412 -270 488 -261 506
7 16 4 44 -11 100 -11 44 -22 81 -24 83 -2 2 -22 -2 -45 -9 -32 -11 -45 -11
-60 -2 -10 7 -52 12 -93 12 -88 0 -89 1 -85 112 l2 73 -280 3 c-234 2 -283 5
-293 17 -18 22 -31 18 -71 -23z m492 -31 c-13 -8 -13 -12 -1 -28 13 -17 13
-17 -4 -1 -19 16 -15 38 7 38 8 0 7 -4 -2 -9z m44 -40 c-3 -6 -11 -11 -16 -11
-5 0 -4 6 3 14 14 16 24 13 13 -3z m-109 -48 c-192 -3 -208 -5 -188 -19 12 -8
22 -21 21 -27 0 -8 -2 -8 -6 1 -3 7 -18 19 -33 27 -26 13 -30 13 -44 -1 -9 -8
-16 -24 -16 -35 0 -22 -12 -24 -43 -8 -22 12 -37 28 -37 42 0 10 38 9 60 -3
13 -7 19 -6 24 5 4 12 -6 15 -55 15 l-60 0 23 -42 23 -43 293 -3 c222 -2 292
1 286 9 -4 8 -3 9 4 5 36 -22 -8 -26 -286 -26 l-298 0 -31 55 -32 54 302 -2
c251 -1 267 -2 93 -4z m-185 -70 c10 3 17 1 13 -4 -9 -16 -41 -10 -65 12 l-24
21 29 -17 c15 -9 37 -15 47 -12z m429 -254 c28 -12 66 -39 85 -60 37 -41 42
-54 25 -64 -5 -3 -10 1 -10 9 0 9 -6 16 -13 16 -9 0 -11 -12 -9 -40 3 -33 7
-39 18 -29 11 9 14 8 14 -5 0 -20 -56 -46 -97 -46 -41 1 -125 32 -160 60 -33
27 -73 88 -73 113 0 22 38 65 63 70 38 9 106 -2 157 -24z m280 -234 c52 -27
69 -91 28 -99 -73 -15 -96 -14 -102 2 -3 9 -15 32 -26 51 -16 26 -18 36 -9 47
15 18 73 18 109 -1z m-212 -86 c16 -13 37 -19 57 -17 26 3 30 0 33 -24 2 -20
-2 -28 -18 -33 -47 -15 -120 28 -120 71 0 29 14 30 48 3z m-84 -15 c22 -21 20
-34 -5 -34 -29 0 -59 18 -59 35 0 20 44 19 64 -1z m209 -90 c46 -23 66 -44 88
-86 l19 -38 -100 0 -100 0 -20 33 c-25 40 -26 83 -2 96 26 16 79 13 115 -5z
m274 -349 l32 -55 -250 2 -249 3 -30 53 -30 52 248 0 248 0 31 -55z m117 40
c3 -8 17 -15 31 -15 18 0 28 -7 35 -26 14 -35 14 -34 -28 -34 -40 0 -60 19
-68 66 -5 27 20 34 30 9z m-73 -176 c31 -22 38 -56 14 -65 -37 -15 -123 50
-111 82 8 21 55 13 97 -17z m-59 -181 c-8 -8 -47 -13 -102 -15 -73 -1 -88 1
-83 13 4 11 27 14 101 14 76 0 93 -3 84 -12z m292 -3 c-5 -12 -21 -14 -73 -12
-36 1 -69 7 -73 12 -5 6 -8 4 -8 -5 0 -13 -1 -13 -10 0 -6 10 -10 11 -10 3 0
-7 -5 -13 -11 -13 -8 0 -8 4 0 14 8 10 38 14 101 15 77 1 89 -1 84 -14z"/>
<path d="M2256 2167 c-8 -35 2 -77 20 -77 17 0 17 4 0 59 -12 43 -13 44 -20
18z"/>
<path d="M2290 2171 c0 -38 22 -81 41 -81 18 0 18 3 -6 50 -27 54 -35 61 -35
31z"/>
<path d="M2320 2183 c0 -3 11 -26 25 -50 17 -28 33 -43 46 -43 23 0 21 6 -24
63 -26 34 -47 47 -47 30z"/>
<path d="M2222 2163 c-17 -30 -15 -62 3 -70 22 -8 23 -4 16 47 -6 42 -8 43
-19 23z"/>
<path d="M2397 2135 c20 -25 44 -45 52 -45 9 0 -3 18 -29 45 -24 25 -48 45
-53 45 -4 0 9 -20 30 -45z"/>
<path d="M2445 2127 c17 -19 36 -36 44 -36 17 -1 -23 45 -54 62 -15 7 -12 1
10 -26z"/>
<path d="M2230 2071 c0 -16 69 -64 96 -67 14 -1 33 -8 42 -16 9 -7 0 7 -21 31
-20 25 -37 48 -37 53 0 4 -7 8 -15 8 -22 0 -19 -10 12 -42 15 -15 22 -28 15
-28 -6 0 -24 16 -39 35 -27 33 -53 46 -53 26z"/>
<path d="M2338 2053 c11 -16 32 -39 47 -53 l27 -25 -26 53 c-19 37 -32 52 -47
52 -20 0 -20 0 -1 -27z"/>
<path d="M2380 2075 c0 -13 45 -95 52 -95 11 0 10 43 -2 74 -6 16 -17 26 -30
26 -11 0 -20 -2 -20 -5z"/>
<path d="M2443 2066 c3 -8 9 -32 13 -52 7 -36 8 -37 16 -14 12 32 0 80 -19 80
-9 0 -13 -6 -10 -14z"/>
<path d="M2420 1422 c0 -13 32 -39 58 -47 32 -9 55 11 41 36 -7 14 -21 19 -54
19 -25 0 -45 -4 -45 -8z"/>
<path d="M2540 1416 c0 -21 56 -49 81 -41 14 5 19 14 17 28 -3 19 -11 22 -50
25 -38 2 -48 0 -48 -12z"/>
<path d="M2660 1415 c0 -9 16 -23 35 -32 28 -13 37 -14 50 -3 34 28 12 50 -51
50 -24 0 -34 -5 -34 -15z"/>
<path d="M5201 2631 c-16 -29 -13 -41 8 -41 11 0 22 -8 24 -17 3 -10 5 -2 6
18 1 46 -22 70 -38 40z"/>
<path d="M4622 2582 c-44 -61 -54 -136 -48 -350 3 -108 8 -235 11 -282 5 -60
1 -122 -13 -213 -15 -103 -16 -130 -6 -134 29 -11 49 3 61 42 34 120 47 190
52 284 l6 103 22 -18 c18 -15 27 -42 41 -119 17 -91 18 -111 6 -220 -19 -177
-19 -175 14 -175 l28 0 22 163 c24 172 26 247 13 365 -7 59 -4 104 14 224 13
82 26 152 29 155 3 3 51 -10 106 -30 73 -26 102 -33 107 -24 4 7 18 34 30 60
13 27 32 61 43 77 18 25 19 60 1 60 -4 0 -29 -29 -55 -65 l-48 -65 -76 42
c-43 23 -115 64 -162 91 -57 34 -100 51 -131 55 -42 4 -48 2 -67 -26z"/>
<path d="M5442 2519 l3 -81 58 -18 57 -18 0 82 0 82 -53 17 c-30 9 -57 17 -61
17 -4 0 -6 -37 -4 -81z m108 13 c0 -4 -13 -23 -29 -42 -29 -34 -30 -35 -45
-15 -22 28 -20 48 4 42 10 -3 24 1 31 9 12 15 39 19 39 6z"/>
<path d="M3559 2538 c0 -2 -2 -13 -3 -25 -3 -23 -1 -23 111 -23 113 0 114 0
111 23 -3 21 -8 22 -110 25 -60 1 -108 1 -109 0z"/>
<path d="M3958 2513 c-16 -19 -38 -57 -38 -67 0 -3 9 -6 20 -6 14 0 20 -7 20
-22 0 -18 2 -20 10 -8 5 8 12 11 16 7 4 -4 3 -12 -3 -18 -14 -14 1 -50 26 -66
15 -9 24 -6 49 17 41 37 47 66 25 125 -18 47 -19 48 -64 52 -34 3 -49 0 -61
-14z"/>
<path d="M3560 2435 c0 -22 4 -25 33 -25 48 0 52 10 12 31 -44 24 -45 24 -45
-6z"/>
<path d="M3645 2448 c17 -6 37 -17 46 -24 8 -8 32 -14 52 -14 33 0 37 3 37 25
0 25 -1 25 -82 24 -71 0 -79 -2 -53 -11z"/>
<path d="M3559 2388 c0 -2 -2 -13 -3 -25 -3 -22 1 -23 63 -23 l66 0 -30 25
c-18 14 -43 24 -62 25 -18 0 -33 -1 -34 -2z"/>
<path d="M3744 2375 c3 -8 -4 -21 -16 -30 l-22 -15 25 -27 c40 -45 62 -62 116
-94 l51 -30 -14 -43 c-8 -24 -30 -61 -49 -83 -31 -37 -37 -39 -82 -38 -26 1
-36 0 -20 -2 38 -6 34 -23 -7 -23 -36 0 -58 -26 -31 -37 22 -8 125 2 160 16
17 7 31 12 31 12 1 -1 4 -191 7 -424 l5 -423 -41 -15 c-65 -23 -55 -34 28 -31
59 3 75 7 79 20 13 46 28 237 24 303 -4 60 15 255 25 266 3 2 117 -516 117
-529 0 -5 -13 -8 -30 -8 -16 0 -30 -4 -30 -8 0 -13 98 -45 111 -36 17 10 5
233 -16 299 -11 38 -16 118 -21 340 -5 262 -15 431 -30 492 -3 12 -22 32 -42
44 -29 17 -45 20 -77 14 -68 -13 -108 -9 -162 14 -49 22 -53 26 -53 57 0 28
-4 34 -21 34 -15 0 -19 -5 -15 -15z"/>
<path d="M5440 2232 c0 -45 3 -83 8 -85 4 -3 31 -12 60 -20 l52 -16 0 83 0 84
-44 11 c-24 6 -51 13 -60 17 -14 5 -16 -4 -16 -74z m75 8 c12 10 15 10 15 -3
0 -9 -4 -18 -9 -21 -5 -3 -7 -15 -4 -26 3 -11 0 -20 -6 -20 -6 0 -11 4 -11 10
0 5 -6 7 -13 5 -9 -4 -13 7 -13 37 -1 37 0 40 12 23 11 -15 16 -16 29 -5z"/>
<path d="M3310 2255 c0 -8 9 -15 20 -15 11 0 20 7 20 15 0 8 -9 15 -20 15 -11
0 -20 -7 -20 -15z"/>
<path d="M3370 2255 c0 -11 7 -15 23 -13 12 2 22 8 22 13 0 6 -10 11 -22 13
-16 2 -23 -2 -23 -13z"/>
<path d="M3000 2161 c0 -50 -3 -59 -20 -64 -18 -5 -20 -14 -20 -76 l0 -71 130
0 130 0 0 75 c0 68 -2 75 -20 75 -27 0 -25 12 6 50 21 24 29 28 40 19 11 -9
14 -6 14 20 0 26 -4 31 -25 31 -14 0 -25 -4 -25 -10 0 -5 5 -10 10 -10 6 0 1
-9 -10 -20 -27 -27 -30 -25 -30 10 l0 30 -90 0 -90 0 0 -59z m67 29 c-1 -15
-8 -20 -29 -20 -21 0 -28 5 -28 20 0 15 7 20 29 20 24 0 29 -4 28 -20z m98
-40 c4 -6 -25 -10 -74 -10 -45 0 -81 4 -81 9 0 12 148 13 155 1z m-67 -27
c-15 -2 -42 -2 -60 0 -18 2 -6 4 27 4 33 0 48 -2 33 -4z"/>
<path d="M3540 2183 c0 -5 32 -6 70 -5 46 2 76 -1 86 -9 12 -10 13 -9 8 5 -5
13 -21 16 -85 16 -43 0 -79 -3 -79 -7z"/>
<path d="M3735 2100 c14 -27 28 -50 30 -50 3 0 -6 23 -20 50 -14 28 -28 50
-30 50 -3 0 6 -22 20 -50z"/>
<path d="M3585 2090 c9 -16 18 -30 21 -30 2 0 -2 14 -11 30 -9 17 -18 30 -21
30 -2 0 2 -13 11 -30z"/>
<path d="M4550 1554 c0 -26 1 -27 55 -20 57 6 105 24 105 38 0 4 -36 8 -80 8
-80 0 -80 0 -80 -26z"/>
<path d="M4737 1473 c-4 -3 -7 -15 -7 -26 0 -17 5 -19 48 -13 62 9 112 25 112
37 0 10 -143 13 -153 2z"/>
</g>
</svg>
