<?xml version="1.0" encoding="UTF-8" standalone="no"?>
<!-- Generator: Adobe Illustrator 25.0.0, SVG Export Plug-In . SVG Version: 6.00 Build 0)  -->

<svg
   version="1.1"
   id="Layer_1"
   x="0px"
   y="0px"
   viewBox="0 0 2707.9558 2646.752"
   xml:space="preserve"
   sodipodi:docname="70927a54b53db3b7ee7ce63b15a8cd80.svg"
   width="2707.9558"
   height="2646.752"
   xmlns:inkscape="http://www.inkscape.org/namespaces/inkscape"
   xmlns:sodipodi="http://sodipodi.sourceforge.net/DTD/sodipodi-0.dtd"
   xmlns="http://www.w3.org/2000/svg"
   xmlns:svg="http://www.w3.org/2000/svg"><sodipodi:namedview
   id="namedview937"
   pagecolor="#ffffff"
   bordercolor="#666666"
   borderopacity="1.0"
   inkscape:pageshadow="2"
   inkscape:pageopacity="0.0"
   inkscape:pagecheckerboard="0" />
<style
   type="text/css"
   id="style2">
	.st0{fill:url(#SVGID_1_);}
	.st1{fill:#E0E0E0;}
	.st2{fill:#D9D9D9;}
	.st3{fill:#B8B8B8;}
	.st4{opacity:0.43;}
	.st5{fill:url(#SVGID_2_);}
	.st6{opacity:0.22;}
	.st7{fill:url(#SVGID_3_);}
	.st8{fill:url(#SVGID_4_);}
	.st9{fill:url(#SVGID_5_);}
	.st10{fill:#FF8557;}
	.st11{fill:#0064B5;}
	.st12{fill:#004E8C;}
	.st13{fill:#26337F;}
	.st14{fill:url(#SVGID_6_);}
	.st15{fill:#6A75BA;}
	.st16{fill:#545D94;}
	.st17{fill:#EEA886;}
	.st18{fill:#D9D3C8;}
	.st19{fill:#222538;}
	.st20{fill:#FFC955;}
	.st21{fill:#A77860;}
	.st22{fill:#C29941;}
	.st23{fill:#FFFFFF;}
	.st24{filter:url(#Adobe_OpacityMaskFilter);}
	.st25{filter:url(#Adobe_OpacityMaskFilter_1_);}
	.st26{mask:url(#SVGID_7_);fill:url(#SVGID_8_);}
	.st27{fill:url(#SVGID_9_);}
	.st28{filter:url(#Adobe_OpacityMaskFilter_2_);}
	.st29{filter:url(#Adobe_OpacityMaskFilter_3_);}
	.st30{mask:url(#SVGID_10_);fill:url(#SVGID_11_);}
	.st31{fill:url(#SVGID_12_);}
	.st32{filter:url(#Adobe_OpacityMaskFilter_4_);}
	.st33{filter:url(#Adobe_OpacityMaskFilter_5_);}
	.st34{mask:url(#SVGID_13_);fill:url(#SVGID_14_);}
	.st35{fill:url(#SVGID_15_);}
	.st36{filter:url(#Adobe_OpacityMaskFilter_6_);}
	.st37{filter:url(#Adobe_OpacityMaskFilter_7_);}
	.st38{mask:url(#SVGID_16_);fill:url(#SVGID_17_);}
	.st39{fill:url(#SVGID_18_);}
	.st40{fill:#C5C6CF;}
	.st41{fill:#E2E3ED;}
	.st42{fill:#EEA987;}
	.st43{fill:#E6D3CD;}
	.st44{fill:#3C4145;}
	.st45{fill:#163342;}
	.st46{fill:#EFAA88;}
	.st47{opacity:0.76;}
	.st48{fill:url(#SVGID_19_);}
	.st49{fill:url(#SVGID_20_);}
	.st50{fill:url(#SVGID_21_);}
	.st51{fill:url(#SVGID_22_);}
	.st52{fill:url(#SVGID_23_);}
	.st53{fill:#007BDE;}
	.st54{fill:url(#SVGID_24_);}
	.st55{fill:url(#SVGID_25_);}
	.st56{fill:url(#SVGID_26_);}
	.st57{fill:url(#SVGID_27_);}
	.st58{fill:#898FBF;}
	.st59{fill:#152B3D;}
	.st60{fill:#FFC05C;}
	.st61{fill:#254380;}
	.st62{fill:#353A3D;}
	.st63{fill:#E55353;}
	.st64{fill:#5DA9DD;}
	.st65{fill:#4867AA;}
	.st66{fill:#1F47DB;}
	.st67{fill:#0478B5;}
	.st68{fill:#F44056;}
	.st69{fill:#81807E;}
	.st70{fill:#2D3133;}
	.st71{fill:#DECBC4;}
	.st72{fill:#495055;}
	.st73{fill:#51565C;}
	.st74{fill:#F5E2D9;}
	.st75{fill:#323657;}
	.st76{fill:#AD9F99;}
	.st77{fill:#69737A;}
	.st78{fill:#D9C9C2;}
	.st79{fill:#DB9C7C;}
	.st80{fill:#4C5385;}
	.st81{fill:#EAD8CF;}
	.st82{fill:#DA9B5B;}
	.st83{fill:#424773;}
	.st84{fill:#292C47;}
	.st85{fill:#E2D2CA;}
</style>
<linearGradient
   id="SVGID_1_"
   gradientUnits="userSpaceOnUse"
   x1="1893.7509"
   y1="971.49731"
   x2="1538.5532"
   y2="1983.4774"
   gradientTransform="translate(-128.04,-117.5)">
	<stop
   offset="0"
   style="stop-color:#C6CBCF"
   id="stop4" />
	<stop
   offset="1"
   style="stop-color:#F8F1FE"
   id="stop6" />
</linearGradient>
<path
   class="st0"
   d="m 2361.44,1201.26 c -0.04,-0.15 -0.08,-0.29 -0.12,-0.44 C 2295.18,970.15 2130.1,772.99 1902.04,671.54 h -0.02 C 1862.95,654 1821.95,639.46 1779.39,628 1672.9,599.34 1565.61,592.85 1462.48,605.61 c -0.08,0.02 -0.19,0.02 -0.27,0.04 l -0.15,-0.04 c -69.39,8.69 -136.94,26.02 -201.17,51.41 -0.13,0.04 -0.25,0.1 -0.38,0.15 -235.87,92.77 -426.13,292.42 -497.03,555.93 -119.02,442.25 142.94,897.1 585.04,1016.08 227.03,61.09 457.37,21.76 643.91,-90.8 l 34.83,48.36 164.11,-118.18 -39.62,-55.01 c 98.85,-99.13 173.9,-224.68 212.89,-369.58 40.55,-150.7 36.88,-302.91 -3.2,-442.71 z m -607.03,757.46 c -293.12,105.04 -615.91,-47.4 -720.95,-340.52 -103.09,-287.66 41.82,-603.92 324.32,-714.86 5.35,-2.1 10.74,-4.13 16.2,-6.09 39.99,-14.33 80.53,-23.88 120.99,-28.91 103.74,-12.93 206.96,3.69 299.12,44.86 135.38,60.47 246.87,173.95 300.84,324.57 4.24,11.86 8.08,23.75 11.5,35.69 80.98,283.18 -70.76,584.46 -352.02,685.26 z"
   id="path9"
   style="fill:url(#SVGID_1_)" />
<g
   id="g65"
   transform="translate(-128.04,-117.5)">
	<g
   id="g13">
		<rect
   x="1227.49"
   y="1546.33"
   class="st1"
   width="6.21"
   height="651.84003"
   id="rect11" />
	</g>
	<g
   id="g17">
		<rect
   x="1669.25"
   y="1546.33"
   class="st1"
   width="6.21"
   height="651.84003"
   id="rect15" />
	</g>
	<g
   id="g21">
		<rect
   x="2111"
   y="1546.33"
   class="st1"
   width="6.21"
   height="651.84003"
   id="rect19" />
	</g>
	<rect
   x="788.84003"
   y="1466.01"
   class="st2"
   width="105.81"
   height="16.99"
   id="rect23" />
	<rect
   x="788.84003"
   y="1497.42"
   class="st2"
   width="150.09"
   height="16.99"
   id="rect25" />
	<rect
   x="1225.84"
   y="1466.01"
   class="st2"
   width="124.22"
   height="16.99"
   id="rect27" />
	<rect
   x="1225.84"
   y="1497.42"
   class="st2"
   width="79.43"
   height="16.99"
   id="rect29" />
	<rect
   x="1675.46"
   y="1466.01"
   class="st2"
   width="76.980003"
   height="16.99"
   id="rect31" />
	<rect
   x="1675.46"
   y="1497.42"
   class="st2"
   width="89.720001"
   height="16.99"
   id="rect33" />
	<rect
   x="2117.22"
   y="1466.01"
   class="st2"
   width="112.13"
   height="16.99"
   id="rect35" />
	<rect
   x="2117.22"
   y="1497.42"
   class="st2"
   width="89.720001"
   height="16.99"
   id="rect37" />
	<rect
   x="1230.6"
   y="2236.78"
   class="st3"
   width="70.279999"
   height="22.66"
   id="rect39" />
	<rect
   x="1675.46"
   y="2236.78"
   class="st3"
   width="70.279999"
   height="22.66"
   id="rect41" />
	<rect
   x="2117.22"
   y="2236.78"
   class="st3"
   width="70.279999"
   height="22.66"
   id="rect43" />
	<rect
   x="2558.97"
   y="2236.78"
   class="st3"
   width="70.279999"
   height="22.66"
   id="rect45" />
	<g
   class="st4"
   id="g54">
		<linearGradient
   id="SVGID_2_"
   gradientUnits="userSpaceOnUse"
   x1="788.84167"
   y1="1859.9099"
   x2="2555.8665"
   y2="1859.9099">
			<stop
   offset="0"
   style="stop-color:#FFC05C"
   id="stop47" />
			<stop
   offset="1"
   style="stop-color:#FF3857"
   id="stop49" />
		</linearGradient>
		<path
   class="st5"
   d="m 2402.78,2004.49 c -137.79,0.01 -257.56,-59.57 -382.43,-121.66 -154.16,-76.66 -313.56,-155.92 -525.94,-134.22 -135.62,13.86 -220.74,69.09 -295.85,117.82 -68,44.12 -132.29,82.92 -219.37,86.23 -140.72,5.35 -189.54,-54.66 -190.36,-58.33 v -38.52 0 0 c 0.18,0.67 30.9,68.03 190.21,67.23 78.45,-0.4 136.35,-37.96 203.4,-81.46 77.91,-50.55 166.22,-107.85 308.95,-122.43 220.9,-22.58 384.21,58.63 542.13,137.16 165.25,82.17 322.94,159.23 522.33,92.38 v 31.67 c -56.82,19.06 -102.28,24.13 -153.07,24.13 z"
   id="path52"
   style="fill:url(#SVGID_2_)" />
	</g>
	<g
   class="st6"
   id="g63">
		<linearGradient
   id="SVGID_3_"
   gradientUnits="userSpaceOnUse"
   x1="788.84167"
   y1="1812.0945"
   x2="2556.7993"
   y2="1812.0945">
			<stop
   offset="0"
   style="stop-color:#40D5E6"
   id="stop56" />
			<stop
   offset="1"
   style="stop-color:#5577FF"
   id="stop58" />
		</linearGradient>
		<path
   class="st7"
   d="m 1575.72,1997.11 c -101.7,0.01 -182.37,-68.4 -261.34,-135.35 -59.88,-50.77 -122,-102.67 -193.71,-128.28 -218.85,-78.14 -330.82,64.54 -331.82,65.8 v -43.4 c 1.18,-1.48 21.16,-27.42 78.94,-52.18 52.61,-22.54 140.87,-40.53 262.61,1.82 77.13,26.83 141.19,81.14 203.13,133.66 125.66,106.54 234.19,198.55 422.67,54.43 142.75,-109.16 277.32,-213.18 409.72,-251.18 129.5,-37.17 264.51,-9.96 390.89,116.42 l -0.93,39.42 c -268.45,-269.63 -497.03,-98.8 -781.69,118.87 -75.42,57.64 -140.38,79.97 -198.47,79.97 z"
   id="path61"
   style="fill:url(#SVGID_3_)" />
	</g>
</g>
<g
   id="g74"
   transform="translate(-128.04,-117.5)">
	<linearGradient
   id="SVGID_4_"
   gradientUnits="userSpaceOnUse"
   x1="1787.4347"
   y1="1251.8982"
   x2="2417.6477"
   y2="1251.8982">
		<stop
   offset="0"
   style="stop-color:#8FD6FF"
   id="stop67" />
		<stop
   offset="1"
   style="stop-color:#BFEBFE"
   id="stop69" />
	</linearGradient>
	<polygon
   class="st8"
   points="1861.85,1321.95 1907.04,1321.95 2009.58,1234.6 2073.72,1289.23 2121.01,1289.23 2144.92,1309.6 2219.18,1246.33 2256.88,1246.33 2413.16,1113.18 2417.65,1118.45 2259.42,1253.24 2221.73,1253.24 2144.92,1318.68 2118.47,1296.15 2071.17,1296.15 2009.58,1243.68 1909.59,1328.87 1864.4,1328.87 1791.92,1390.61 1787.43,1385.35 "
   id="polygon72"
   style="fill:url(#SVGID_4_)" />
</g>
<g
   id="g83"
   transform="translate(-128.04,-117.5)">
	<linearGradient
   id="SVGID_5_"
   gradientUnits="userSpaceOnUse"
   x1="1776.9523"
   y1="1170.981"
   x2="2405.1262"
   y2="1170.981">
		<stop
   offset="0"
   style="stop-color:#8FD6FF"
   id="stop76" />
		<stop
   offset="1"
   style="stop-color:#BFEBFE"
   id="stop78" />
	</linearGradient>
	<polygon
   class="st9"
   points="1776.95,1296.13 1799.8,1296.13 1838.42,1257.51 1866.5,1285.59 1933.58,1218.51 1954.21,1239.15 2022.22,1171.14 2062.98,1211.89 2109.44,1211.89 2181.16,1140.17 2243.01,1140.17 2288.73,1094.45 2344.7,1094.45 2400.24,1038.92 2405.13,1043.81 2347.57,1101.37 2291.6,1101.37 2245.87,1147.09 2184.02,1147.09 2112.3,1218.81 2060.11,1218.81 2022.22,1180.92 1954.21,1248.93 1933.58,1228.29 1866.5,1295.37 1838.42,1267.29 1802.67,1303.05 1776.95,1303.05 "
   id="polygon81"
   style="fill:url(#SVGID_5_)" />
</g>
<g
   id="g87"
   transform="translate(-128.04,-117.5)">
	<path
   class="st10"
   d="m 2652.78,1271.76 -163.42,46.56 -254.88,72.64 c -3.42,-11.94 -7.26,-23.84 -11.5,-35.69 -53.97,-150.62 -165.45,-264.1 -300.84,-324.57 l 107.92,-241.67 h 0.02 l 11.35,-25.43 58,-129.89 c 274.87,122.28 473.78,360 553.35,638.05 z"
   id="path85" />
</g>
<g
   id="g91"
   transform="translate(-128.04,-117.5)">
	<path
   class="st11"
   d="m 2041.42,763.61 -11.35,25.43 -107.94,241.67 c -92.16,-41.17 -195.38,-57.79 -299.12,-44.86 l -32.5,-262.73 -3.4,-27.55 c 106.62,-13.24 217.54,-6.53 327.64,23.1 43.94,11.8 86.32,26.83 126.67,44.94 z"
   id="path89" />
</g>
<g
   id="g95"
   transform="translate(-128.04,-117.5)">
	<path
   class="st12"
   d="m 1623.02,985.84 c -40.46,5.04 -81,14.58 -120.99,28.91 -5.46,1.95 -10.85,3.99 -16.2,6.09 l -96.9,-246.32 -29.33,-74.55 c 70.53,-27.93 144.7,-46.98 220.91,-56.51 l 0.17,0.04 6.44,52.06 3.4,27.55 z"
   id="path93" />
</g>
<path
   class="st13"
   d="M 883.66,2142.83 H 320.97 c -30.21,0 -54.7,-24.49 -54.7,-54.7 v -685.82 c 0,-30.21 24.49,-54.7 54.7,-54.7 h 562.69 c 30.21,0 54.7,24.49 54.7,54.7 v 685.82 c 0,30.21 -24.49,54.7 -54.7,54.7 z"
   id="path97" />
<linearGradient
   id="SVGID_6_"
   gradientUnits="userSpaceOnUse"
   x1="2073.7092"
   y1="2008.9803"
   x2="2717.928"
   y2="2921.0222">
	<stop
   offset="0"
   style="stop-color:#C6CBCF"
   id="stop99" />
	<stop
   offset="1"
   style="stop-color:#F8F1FE"
   id="stop101" />
</linearGradient>
<polygon
   class="st14"
   points="2127.53,2319.55 2234.03,2242.85 2342.73,2164.6 2396.86,2239.79 2681.4,2634.94 2354.62,2634.94 "
   id="polygon104"
   style="fill:url(#SVGID_6_)"
   transform="translate(-128.04,-117.5)" />
<g
   id="g146"
   transform="translate(-128.04,-117.5)">
	<g
   id="g144">
		<g
   id="g140">
			<path
   class="st15"
   d="m 1515.38,586.33 c 0,0 -11.78,-21.62 -18.47,-29.4 -6.7,-7.78 -28.95,-13.61 -25.93,-23.55 3.03,-9.94 32.84,-5.62 41.05,4.11 8.21,9.72 33.27,13.18 34.14,17.29 0.86,4.11 -8.7,26.58 -14.08,30.25 -5.36,3.67 -16.71,1.3 -16.71,1.3 z"
   id="path106" />
			<path
   class="st16"
   d="m 1465.33,604.63 c 0,0 -19.18,-15.21 -28.42,-19.69 -9.24,-4.48 -31.98,-1 -33.15,-11.32 -1.17,-10.32 27.91,-18.2 39.31,-12.53 11.4,5.66 35.77,-1.12 38.2,2.31 2.42,3.42 2.57,27.85 -0.91,33.35 -3.47,5.51 -15.03,7.88 -15.03,7.88 z"
   id="path108" />
			<path
   class="st17"
   d="m 1507.93,644.23 c 0,0 8.37,-57.26 8,-67.2 -0.11,-2.84 17.23,-1.78 16.42,3.67 -1.76,11.88 6.24,57.91 4.85,66.33 -1.4,8.43 -29.98,2.51 -29.27,-2.8 z"
   id="path110" />
			<path
   class="st17"
   d="m 1481.69,660.69 c 0,0 -15.69,-55.6 -19.35,-64.85 -1.63,-4.12 14.36,-10.49 16.53,-3.15 3.4,11.52 28.72,50.67 30.79,58.96 2.07,8.28 -26.52,14.19 -27.97,9.04 z"
   id="path112" />
			<path
   class="st18"
   d="m 1492.59,699.33 c 0,0 -16.85,-56.83 -19.45,-62.88 l 26.58,-16.42 c 0,0 12.32,36.3 14.05,45.38 1.72,9.07 -21.18,33.92 -21.18,33.92 z"
   id="path114" />
			<path
   class="st19"
   d="m 1963.03,549.19 c 0,0 -25.67,6.49 -37.88,25.9 -12.21,19.41 -22.76,41.76 -45.71,51.9 -22.94,10.14 -23.09,36.27 -21.31,40.3 1.79,4.03 72.27,83.26 87.65,86.33 15.38,3.06 44.18,0.93 41.1,-19.43 -3.08,-20.36 -33.26,-64.16 -16.32,-86.25 16.94,-22.09 21.21,-42.45 21.21,-42.45 z"
   id="path116" />
			<path
   class="st17"
   d="m 1958.56,643.94 c 0,0 -0.75,-0.25 -2.01,-0.36 -1.46,-0.14 -3.58,-0.09 -6,0.72 -0.6,0.2 -1.41,0.61 -2.35,1.17 -6.1,3.59 -20.53,13.35 -22.48,13.58 -2.25,0.27 -0.35,-33.4 -0.35,-33.4 0,0 7.68,-13.59 8.65,-22.54 0.96,-8.95 24.54,40.83 24.54,40.83 z"
   id="path118" />
			<path
   class="st18"
   d="m 1778.02,679.12 c 0,0 -28.2,-19.77 -61.26,-13.61 -33.06,6.16 -36.62,21.61 -47.97,22.31 -11.34,0.7 -49.26,-2.54 -80.38,6.53 -31.11,9.07 -57.37,10.05 -60.93,7.45 -3.56,-2.59 19.45,-54.45 19.45,-61.58 l -38.57,-10.05 c 0,0 -11.02,46.02 -15.34,56.4 -4.62,11.09 -13.5,31.98 -0.86,50.13 12.64,18.15 47.97,9.97 69.36,13.63 21.39,3.66 117.14,1.31 133.86,0.42 18.15,-0.97 72.92,-3.56 72.92,-3.56 z"
   id="path120" />
			<path
   class="st17"
   d="m 2009.61,576.65 c 0,0 1.8,27.86 -4.39,36.21 -2.47,3.34 -4.15,5.16 -5.28,6.14 -1.59,1.38 -2.82,3.12 -3.52,5.1 -1.91,5.36 -3.09,12.9 -4.61,14.51 -1.66,1.76 -6.47,-2.71 -8.21,-2.72 -1.74,-0.01 -18.71,14.63 -22.77,11.64 -4.06,-3 -28.81,-28.12 -26.73,-45.34 2.08,-17.22 9.68,-42.93 37.55,-42.78 27.87,0.17 35.83,10.31 37.96,17.24 z"
   id="path122" />
			<path
   class="st20"
   d="m 1925.38,709.59 c -0.53,1.14 -10.78,17.51 -22.01,27.01 -4.66,3.94 -9.49,6.7 -13.86,6.7 -1.34,0 -2.64,0.02 -3.9,0.05 -12.88,0.35 -22.78,2.32 -40.18,3.19 -18.07,0.9 -61.9,-1.62 -63.2,-1.62 -1.3,0 -13.94,2.27 -13.94,2.27 -4.54,-5.51 7.45,-67.74 9.72,-68.06 2.27,-0.32 16.85,5.19 30.79,2.92 13.94,-2.27 19.45,-3.57 40.19,-27.87 20.74,-24.31 41.48,-30.47 50.24,-28.52 8.75,1.94 26.15,0 26.15,0 0,0 0.76,82.31 0,83.93 z"
   id="path124" />
			<path
   class="st19"
   d="m 1997.9,596.6 c 0,0 5.19,13.46 7.95,15.31 0,0 10.03,-10.6 3.59,-36.76 -6.44,-26.16 -30.72,-28.62 -46.4,-25.96 -19.52,3.31 -39.16,69.34 -38.15,75.77 1.01,6.43 22.88,-34.12 42.04,-30.86 19.15,3.26 19.3,4.32 30.97,2.5 z"
   id="path126" />
			<path
   class="st21"
   d="m 1956.6,643.63 c -1.46,-0.14 -3.59,-0.03 -6.01,0.78 -0.6,0.2 -1.45,0.5 -2.39,1.06 -4.48,-6.99 -8.63,-23.56 -8.77,-24.12 2.99,6.37 17.17,22.28 17.17,22.28 z"
   id="path128" />
			<path
   class="st22"
   d="m 1903.37,736.6 c -4.66,3.94 -9.49,6.7 -13.86,6.7 -1.34,0 -2.64,0.02 -3.9,0.05 l 6.36,-51.58 z"
   id="path130" />
			<path
   class="st17"
   d="m 2004.22,825.43 -12.44,11.32 c -10.73,-5.75 -37.63,-25.11 -42.81,-29.52 -5.43,-4.62 -41.61,-34.89 -46.58,-41.79 -5.01,-6.9 -11.36,-78.2 -10.72,-81.46 0.64,-3.22 31.46,-4.88 34.96,2.67 0,0 1.61,40.66 2.44,47.47 0.78,6.81 3.39,12.96 8.06,18.68 6.46,7.93 20.22,26.33 33.54,41.21 3.17,3.54 29.44,27.88 33.55,31.42 z"
   id="path132" />
			<path
   class="st20"
   d="m 1929.16,687.55 c 0,0 1.94,-54.15 -15.67,-53.48 -22.27,0.85 -25.61,28.09 -22.58,57.69 0.01,0 33.28,0.33 38.25,-4.21 z"
   id="path134" />
			<path
   class="st17"
   d="m 1998.23,820.13 c 0,0 1.66,2.61 4.06,3.42 4.14,1.4 10.27,-1.3 13.3,4.13 3.02,5.43 -11.57,18.99 -15.49,19.82 -3.92,0.82 -10.21,-5.28 -15.12,-17.32 -4.91,-12.04 13.25,-10.05 13.25,-10.05 z"
   id="path136" />
			<path
   class="st17"
   d="m 2014.3,825.99 c 0,0 7.45,5.67 14.98,12.95 6.61,6.39 13.32,14.77 11.63,16.35 -2.32,2.16 -6.82,-5.04 -13.79,-10.95 -6.42,-5.44 -6.05,-3.34 -6.05,-3.34 0,0 -0.07,-0.6 5.78,6.63 6.29,7.78 12.8,17.01 10.86,18.34 -1.22,0.84 -1.27,1.06 -4.02,-1.41 1.28,1.74 0.98,2.32 0.3,2.89 -3.51,2.94 -14.54,-7.12 -18.92,-11.12 3.34,3.09 5.47,5.7 2.08,6.1 -3.89,0.46 -18.84,-14.45 -24.71,-19.3 -6.41,-5.3 21.86,-17.14 21.86,-17.14 z"
   id="path138" />
		</g>
		<path
   class="st1"
   d="m 1790.69,681.6 c 0,0 -5.94,42.61 -3.01,63.57 0,0 3.1,2.3 9.27,0.44 0,0 1.54,-46.52 4.99,-63.03 0,0.01 -1.9,-1.43 -11.25,-0.98 z"
   id="path142" />
	</g>
</g>
<g
   id="g158"
   transform="translate(-128.04,-117.5)">
	
		<rect
   x="2511.48"
   y="2068.1599"
   transform="rotate(180,2556.0791,2071.2874)"
   class="st23"
   width="89.199997"
   height="6.25"
   id="rect148" />
	
		<rect
   x="2511.48"
   y="2079.95"
   transform="rotate(180,2556.0791,2093.0904)"
   class="st23"
   width="89.199997"
   height="26.290001"
   id="rect150" />
	
		<rect
   x="2469.5701"
   y="2115.0701"
   transform="rotate(180,2495.8858,2117.0386)"
   class="st23"
   width="52.619999"
   height="3.9300001"
   id="rect152" />
	
		<rect
   x="2469.5701"
   y="2120.72"
   transform="rotate(180,2495.8858,2126.0417)"
   class="st23"
   width="52.619999"
   height="10.64"
   id="rect154" />
	
		<rect
   x="2615.3301"
   y="2034.46"
   transform="rotate(180,2617.2957,2071.2864)"
   class="st23"
   width="3.9300001"
   height="73.660004"
   id="rect156" />
</g>
<defs
   id="defs165">
	<filter
   id="Adobe_OpacityMaskFilter"
   filterUnits="userSpaceOnUse"
   x="168.17"
   y="1536.36"
   width="112.02"
   height="54.450001">
		<feFlood
   result="back"
   id="feFlood160" />
		<feBlend
   in="SourceGraphic"
   in2="back"
   mode="normal"
   id="feBlend162" />
	</filter>
</defs>
<mask
   maskUnits="userSpaceOnUse"
   x="168.17"
   y="1536.36"
   width="112.02"
   height="54.45"
   id="mask186">
	<g
   class="st24"
   id="g184">
		<defs
   id="defs172">
			<filter
   id="Adobe_OpacityMaskFilter_1_"
   filterUnits="userSpaceOnUse"
   x="168.17"
   y="1536.36"
   width="112.02"
   height="54.450001">
				<feFlood
   result="back"
   id="feFlood167" />
				<feBlend
   in="SourceGraphic"
   in2="back"
   mode="normal"
   id="feBlend169" />
			</filter>
		</defs>
		<mask
   maskUnits="userSpaceOnUse"
   x="168.17"
   y="1536.36"
   width="112.02"
   height="54.45"
   id="SVGID_7_">
			<g
   class="st25"
   id="g174">
			</g>
		</mask>
		<linearGradient
   id="SVGID_8_"
   gradientUnits="userSpaceOnUse"
   x1="218.6651"
   y1="1297.1866"
   x2="228.09979"
   y2="1753.1804">
			<stop
   offset="0"
   style="stop-color:#FFFFFF"
   id="stop177" />
			<stop
   offset="1"
   style="stop-color:#000000"
   id="stop179" />
		</linearGradient>
		<polygon
   class="st26"
   points="280.19,1590.81 253.93,1536.36 168.17,1536.36 194.42,1590.81 "
   mask="url(#SVGID_7_)"
   id="polygon182" />
	</g>
</mask>
<linearGradient
   id="SVGID_9_"
   gradientUnits="userSpaceOnUse"
   x1="218.6651"
   y1="1297.1866"
   x2="228.09979"
   y2="1753.1804">
	<stop
   offset="0"
   style="stop-color:#40D5E6"
   id="stop188" />
	<stop
   offset="1"
   style="stop-color:#5577FF"
   id="stop190" />
</linearGradient>
<polygon
   class="st27"
   points="253.93,1536.36 168.17,1536.36 194.42,1590.81 280.19,1590.81 "
   id="polygon193"
   style="fill:url(#SVGID_9_)"
   transform="translate(-128.04,-117.5)" />
<defs
   id="defs200">
	<filter
   id="Adobe_OpacityMaskFilter_2_"
   filterUnits="userSpaceOnUse"
   x="128.03999"
   y="1536.36"
   width="46.689999"
   height="54.450001">
		<feFlood
   result="back"
   id="feFlood195" />
		<feBlend
   in="SourceGraphic"
   in2="back"
   mode="normal"
   id="feBlend197" />
	</filter>
</defs>
<mask
   maskUnits="userSpaceOnUse"
   x="128.04"
   y="1536.36"
   width="46.69"
   height="54.45"
   id="mask221">
	<g
   class="st28"
   id="g219">
		<defs
   id="defs207">
			<filter
   id="Adobe_OpacityMaskFilter_3_"
   filterUnits="userSpaceOnUse"
   x="128.03999"
   y="1536.36"
   width="46.689999"
   height="54.450001">
				<feFlood
   result="back"
   id="feFlood202" />
				<feBlend
   in="SourceGraphic"
   in2="back"
   mode="normal"
   id="feBlend204" />
			</filter>
		</defs>
		<mask
   maskUnits="userSpaceOnUse"
   x="128.04"
   y="1536.36"
   width="46.69"
   height="54.45"
   id="SVGID_10_">
			<g
   class="st29"
   id="g209">
			</g>
		</mask>
		<linearGradient
   id="SVGID_11_"
   gradientUnits="userSpaceOnUse"
   x1="145.9003"
   y1="1298.6923"
   x2="155.3349"
   y2="1754.6855">
			<stop
   offset="0"
   style="stop-color:#FFFFFF"
   id="stop212" />
			<stop
   offset="1"
   style="stop-color:#000000"
   id="stop214" />
		</linearGradient>
		<polygon
   class="st30"
   points="174.72,1590.81 148.47,1536.36 128.04,1536.36 154.29,1590.81 "
   mask="url(#SVGID_10_)"
   id="polygon217" />
	</g>
</mask>
<linearGradient
   id="SVGID_12_"
   gradientUnits="userSpaceOnUse"
   x1="145.9003"
   y1="1298.6923"
   x2="155.3349"
   y2="1754.6855">
	<stop
   offset="0"
   style="stop-color:#40D5E6"
   id="stop223" />
	<stop
   offset="1"
   style="stop-color:#5577FF"
   id="stop225" />
</linearGradient>
<polygon
   class="st31"
   points="148.47,1536.36 128.04,1536.36 154.29,1590.81 174.72,1590.81 "
   id="polygon228"
   style="fill:url(#SVGID_12_)"
   transform="translate(-128.04,-117.5)" />
<defs
   id="defs235">
	<filter
   id="Adobe_OpacityMaskFilter_4_"
   filterUnits="userSpaceOnUse"
   x="2459.4099"
   y="574.96002"
   width="95.110001"
   height="36.68">
		<feFlood
   result="back"
   id="feFlood230" />
		<feBlend
   in="SourceGraphic"
   in2="back"
   mode="normal"
   id="feBlend232" />
	</filter>
</defs>
<mask
   maskUnits="userSpaceOnUse"
   x="2459.41"
   y="574.96"
   width="95.11"
   height="36.68"
   id="mask256">
	<g
   class="st32"
   id="g254">
		<defs
   id="defs242">
			<filter
   id="Adobe_OpacityMaskFilter_5_"
   filterUnits="userSpaceOnUse"
   x="2459.4099"
   y="574.96002"
   width="95.110001"
   height="36.68">
				<feFlood
   result="back"
   id="feFlood237" />
				<feBlend
   in="SourceGraphic"
   in2="back"
   mode="normal"
   id="feBlend239" />
			</filter>
		</defs>
		<mask
   maskUnits="userSpaceOnUse"
   x="2459.41"
   y="574.96"
   width="95.11"
   height="36.68"
   id="SVGID_13_">
			<g
   class="st33"
   id="g244">
			</g>
		</mask>
		<linearGradient
   id="SVGID_14_"
   gradientUnits="userSpaceOnUse"
   x1="2559.3201"
   y1="397.44159"
   x2="2449.9131"
   y2="806.70532">
			<stop
   offset="0"
   style="stop-color:#FFFFFF"
   id="stop247" />
			<stop
   offset="1"
   style="stop-color:#000000"
   id="stop249" />
		</linearGradient>
		<polygon
   class="st34"
   points="2554.52,611.64 2554.52,574.96 2459.41,574.96 2459.41,611.64 "
   mask="url(#SVGID_13_)"
   id="polygon252" />
	</g>
</mask>
<linearGradient
   id="SVGID_15_"
   gradientUnits="userSpaceOnUse"
   x1="2559.3201"
   y1="397.44159"
   x2="2449.9131"
   y2="806.70532">
	<stop
   offset="0"
   style="stop-color:#40D5E6"
   id="stop258" />
	<stop
   offset="1"
   style="stop-color:#5577FF"
   id="stop260" />
</linearGradient>
<polygon
   class="st35"
   points="2554.52,574.96 2459.41,574.96 2459.41,611.64 2554.52,611.64 "
   id="polygon263"
   style="fill:url(#SVGID_15_)"
   transform="translate(-128.04,-117.5)" />
<defs
   id="defs270">
	<filter
   id="Adobe_OpacityMaskFilter_6_"
   filterUnits="userSpaceOnUse"
   x="2459.4099"
   y="557.84998"
   width="95.110001"
   height="6.9000001">
		<feFlood
   result="back"
   id="feFlood265" />
		<feBlend
   in="SourceGraphic"
   in2="back"
   mode="normal"
   id="feBlend267" />
	</filter>
</defs>
<mask
   maskUnits="userSpaceOnUse"
   x="2459.41"
   y="557.85"
   width="95.11"
   height="6.9"
   id="mask291">
	<g
   class="st36"
   id="g289">
		<defs
   id="defs277">
			<filter
   id="Adobe_OpacityMaskFilter_7_"
   filterUnits="userSpaceOnUse"
   x="2459.4099"
   y="557.84998"
   width="95.110001"
   height="6.9000001">
				<feFlood
   result="back"
   id="feFlood272" />
				<feBlend
   in="SourceGraphic"
   in2="back"
   mode="normal"
   id="feBlend274" />
			</filter>
		</defs>
		<mask
   maskUnits="userSpaceOnUse"
   x="2459.41"
   y="557.85"
   width="95.11"
   height="6.9"
   id="SVGID_16_">
			<g
   class="st37"
   id="g279">
			</g>
		</mask>
		<linearGradient
   id="SVGID_17_"
   gradientUnits="userSpaceOnUse"
   x1="2543.2825"
   y1="425.42679"
   x2="2458.5483"
   y2="742.39618">
			<stop
   offset="0"
   style="stop-color:#FFFFFF"
   id="stop282" />
			<stop
   offset="1"
   style="stop-color:#000000"
   id="stop284" />
		</linearGradient>
		<polygon
   class="st38"
   points="2554.52,564.75 2554.52,557.85 2459.41,557.85 2459.41,564.75 "
   mask="url(#SVGID_16_)"
   id="polygon287" />
	</g>
</mask>
<linearGradient
   id="SVGID_18_"
   gradientUnits="userSpaceOnUse"
   x1="2543.2825"
   y1="425.42679"
   x2="2458.5483"
   y2="742.39618">
	<stop
   offset="0"
   style="stop-color:#40D5E6"
   id="stop293" />
	<stop
   offset="1"
   style="stop-color:#5577FF"
   id="stop295" />
</linearGradient>
<polygon
   class="st39"
   points="2554.52,557.85 2459.41,557.85 2459.41,564.75 2554.52,564.75 "
   id="polygon298"
   style="fill:url(#SVGID_18_)"
   transform="translate(-128.04,-117.5)" />
<g
   id="g346"
   transform="translate(-128.04,-117.5)">
	<polygon
   class="st40"
   points="2806.61,2108.86 2480.36,2108.86 2442.07,1920.22 2804.62,1896.91 "
   id="polygon300" />
	<polygon
   class="st41"
   points="2806.61,2108.86 2480.36,2108.86 2457.77,1900.48 2804.62,1896.91 "
   id="polygon302" />
	<g
   id="g308">
		<path
   class="st42"
   d="m 2452.27,1653.72 c 0,0 8.25,9.07 11.49,5.08 3.24,-3.99 6.93,-9.67 6.93,-9.67 z"
   id="path304" />
		<path
   class="st42"
   d="m 2435.98,1567.02 10.61,49.33 c -3.27,-4.02 -9,-10.43 -10.85,-8.53 -2.65,2.72 6.2,16.18 7.72,21.98 1.39,5.31 3.22,13.6 5.51,18.5 l 4.01,8.07 17.72,-7.25 c 0,0 -0.82,-35.17 -1.49,-43.09 -1.09,-12.87 -25.86,-40.77 -28.26,-41.05 -4.34,-0.51 -4.97,2.04 -4.97,2.04 z"
   id="path306" />
	</g>
	<path
   class="st43"
   d="m 2799.16,2500.66 c 0,0 4.99,12.03 9.2,16.8 4.21,4.77 20.32,13.29 20.4,27.45 0.1,15.35 -27.16,11.09 -37.81,10.53 -10.66,-0.56 -11.46,-8.77 -15.95,-17.46 -4.49,-8.7 -9.01,-7.22 -9.85,-14.23 -0.84,-7.01 3.44,-22.71 3.44,-22.71 z"
   id="path310" />
	<g
   id="g314">
		<path
   class="st43"
   d="m 2547.99,2503.42 c 0,0 -14.85,15.59 -29.92,18.85 -15.07,3.27 -25.61,7.43 -25.73,16.38 -0.11,8.95 43.37,14.84 60.62,5.82 25.74,-13.46 28.36,-9.4 31.21,-16.13 2.85,-6.73 -3.43,-24.72 -3.24,-26.86 0.23,-2.64 -32.94,1.94 -32.94,1.94 z"
   id="path312" />
	</g>
	<g
   id="g318">
		<path
   class="st44"
   d="m 2587.58,2053.27 c 0,0 -15.59,113.26 -21.96,151.55 -7.45,44.77 -9.97,81.76 -12.05,104.93 -2.61,29.15 -7.62,182.39 -9.45,190.91 -1.83,8.52 40.8,4.27 40.8,4.27 0,0 30.92,-198.71 38.7,-229.75 7.24,-28.9 27.17,-148.05 33.78,-140.16 6.61,7.89 48.11,147.29 53.01,170.09 4.89,22.79 52.1,201.25 52.1,201.25 0,0 35.28,7.58 44.25,0.44 0,0 -30.79,-163.95 -33.91,-206.68 -1.19,-16.29 -10.84,-194.16 -38.38,-266.22 -14.56,-38.08 -146.89,19.37 -146.89,19.37 z"
   id="path316" />
	</g>
	<path
   class="st20"
   d="m 2633.33,1781.63 c 0,0 -41.26,8.53 -46.16,12.87 -5.31,4.62 -14.69,49.81 -15.25,62.39 -0.56,12.59 4.97,65.17 10.29,84.76 5.32,19.58 4.1,121.79 1.72,137.87 0,0 82.76,16.19 164.45,5.56 0,0 -14.12,-88.76 -10.85,-115.59 4.19,-34.38 14.27,-113.57 14.27,-113.57 0,0 -10.91,-53.33 -18.19,-59.48 -7.27,-6.15 -57.83,-16.17 -57.83,-16.17 z"
   id="path320" />
	<path
   class="st17"
   d="m 2650.39,1654.04 c 0,0 -49.63,-18.37 -46.53,47.59 3.1,65.96 14.73,72.66 47.38,63.45 32.65,-9.21 35.39,-50.84 39.64,-70.86 4.25,-20.02 -24.26,-37.3 -40.49,-40.18 z"
   id="path322" />
	<path
   class="st17"
   d="m 2625.16,1792.07 c 0,0 25.78,20.91 50.62,-11.82 0,0 -1.09,-26.55 6.5,-51.35 7.6,-24.8 -51.97,33.07 -51.97,33.07 0.62,0.44 0.75,2.92 0.39,6.38 -0.3,2.93 -0.95,6.56 -1.91,10.25 -2.18,8.28 -1.67,6.81 -3.63,13.47 z"
   id="path324" />
	<path
   class="st45"
   d="m 2683.98,1726.93 c 0,0 0.14,-17.62 -7.19,-19.24 -7.33,-1.62 -11.1,8.56 -11.1,8.56 l -5.9,-0.32 c 0,0 5.27,-17.85 -1.71,-21.95 -6.99,-4.09 -48.77,-0.5 -54.02,-6.51 -5.24,-6.01 2.36,-41.71 13.76,-45.22 11.4,-3.5 42.54,-10.61 62.32,7 0,0 17.72,0.12 17.68,21.35 -0.02,14.04 -7.88,46.78 -13.84,56.33 z"
   id="path326" />
	<path
   class="st21"
   d="m 2628.79,1778.59 c 38.47,-6.47 44.22,-28.35 44.31,-28.69 -14.96,19.29 -42.39,18.44 -42.39,18.44 -0.31,2.93 -0.95,6.57 -1.92,10.25 z"
   id="path328" />
	<path
   class="st17"
   d="m 2668.5,1700.21 c 2.19,-5.81 14.57,-5.08 13.3,4.14 -1.27,9.21 -11.5,23.41 -15.61,20.74 -4.1,-2.66 -0.71,-16.86 2.31,-24.88 z"
   id="path330" />
	<path
   class="st17"
   d="m 2689.17,1783.07 c 0,0 -23.27,47.03 -57.53,43.23 -34.25,-3.81 -14.4,-36.63 -11.12,-41.86 0,0 20.55,-13.19 68.65,-1.37 z"
   id="path332" />
	<g
   id="g336">
		<path
   class="st20"
   d="m 2473.01,1745.1 c -9.67,-18.83 -30.94,-91.55 -30.94,-91.55 l 30.1,-6.3 c 0,0 16.02,36.59 23.64,61.92 3.71,12.34 8.7,24.46 9.8,26.41 1.11,1.95 52.39,40.79 57.98,43.64 5.59,2.85 27.06,10.29 37.33,20.72 10.27,10.42 5.27,24.7 5.27,24.7 -21.77,28.01 -61.99,-8.41 -61.99,-8.41 0,0 -57.63,-44.74 -71.19,-71.13 z"
   id="path334" />
	</g>
	<path
   class="st20"
   d="m 2523.21,1798.95 c 0,0 47.51,51.89 49.15,71.11 1.17,13.72 9.73,-41.27 9.73,-41.27 z"
   id="path338" />
	
		<rect
   x="2480.3601"
   y="1884.78"
   transform="rotate(180,2658.178,1996.8189)"
   class="st10"
   width="355.64001"
   height="224.08"
   id="rect340" />
	<path
   class="st46"
   d="m 2780.71,2120.12 c 0,0 1.69,-4.11 1.55,-6.27 0,0 -0.56,-3.91 -0.78,-6.71 -0.07,-0.89 -0.11,-1.67 -0.08,-2.17 0.11,-2.11 0.98,-6.7 -0.18,-11.83 -1.16,-5.13 -7.08,-22.83 -7.08,-22.83 l -15.98,2.38 -13.89,-1.88 c 0,0 -10.35,30.21 -9.82,35.11 0.05,0.48 0.12,0.95 0.23,1.39 0.85,4.11 3.21,6.81 3.9,8.91 0.26,0.77 3.34,8.27 5.66,8.99 3.21,1 5.84,0.39 7.62,-1.07 0,0 6.37,1.68 10.41,-0.16 0,0 5.83,1.74 10.2,-1.98 -0.03,0 6.09,1.1 8.24,-1.88 z"
   id="path342" />
	<path
   class="st20"
   d="m 2710.9,1795.28 c -5.41,2.09 -11.14,15.19 -6.88,40.86 4.57,27.54 13.67,39.31 17.32,45.75 3.66,6.44 26.25,49.35 26.17,55.7 -0.22,16.53 0.17,60.17 -0.36,63.51 -0.89,5.71 -4.58,71.46 -4.58,71.46 l 34.91,8.45 c 0,0 6.88,-74.15 9.99,-96.56 1.25,-8.99 3.95,-33.66 0.83,-58.24 -3,-23.71 -20.18,-76.13 -22.48,-80.3 -2.3,-4.17 -19.15,-64.48 -54.92,-50.63 z"
   id="path344" />
</g>
<g
   class="st47"
   id="g354"
   transform="translate(-128.04,-117.5)">
	<g
   id="g352">
		<g
   id="g350">
			<path
   class="st23"
   d="m 632.95,1588.3 c -14.66,-41 -53.84,-66.18 -95.14,-64.94 -10,0.3 -20.12,2.15 -30.05,5.7 -30.08,10.76 -51.65,34.72 -60.51,63.02 -6.14,19.62 -6.18,41.32 1.28,62.17 0.74,2.07 1.55,4.11 2.41,6.1 3.92,9.03 9.07,17.2 15.18,24.38 25.63,30.13 68.15,42.86 107.6,28.76 50.93,-18.21 77.45,-74.26 59.23,-125.19 z m -67.48,102.12 c -29.58,10.58 -61.46,1.03 -80.67,-21.55 -4.58,-5.38 -8.44,-11.51 -11.38,-18.28 -0.65,-1.49 -1.25,-3.02 -1.81,-4.58 -5.59,-15.63 -5.56,-31.9 -0.95,-46.61 6.64,-21.23 22.81,-39.19 45.36,-47.25 7.44,-2.66 15.03,-4.05 22.53,-4.28 30.96,-0.93 60.34,17.95 71.33,48.69 13.65,38.18 -6.23,80.2 -44.41,93.86 z"
   id="path348" />
		</g>
	</g>
</g>
<linearGradient
   id="SVGID_19_"
   gradientUnits="userSpaceOnUse"
   x1="728.50848"
   y1="1286.2911"
   x2="728.50848"
   y2="3244.2371"
   gradientTransform="translate(-128.04,-117.5)">
	<stop
   offset="0"
   style="stop-color:#626E7A"
   id="stop356" />
	<stop
   offset="1"
   style="stop-color:#F5F5F5"
   id="stop358" />
</linearGradient>
<path
   class="st48"
   d="m 913.22,1290.14 h -625.5 c -12.86,0 -23.29,-10.43 -23.29,-23.29 v -12.32 c 0,-12.86 10.43,-23.29 23.29,-23.29 h 625.51 c 12.86,0 23.29,10.43 23.29,23.29 v 12.32 c -0.01,12.86 -10.43,23.29 -23.3,23.29 z"
   id="path361"
   style="fill:url(#SVGID_19_)" />
<g
   id="g405"
   transform="translate(-128.04,-117.5)">
	<g
   id="g371">
		<g
   id="g369">
			<g
   id="g367">
				<g
   id="g365">
					<polygon
   class="st23"
   points="1005.73,1774.52 1000.2,1770.51 920.56,1880.37 818.3,1874.6 701.05,2008.31 578.3,1981.71 457.01,2096.15 461.7,2101.12 580.37,1989.15 703.53,2015.84 821.24,1881.61 923.9,1887.4 "
   id="polygon363" />
				</g>
			</g>
		</g>
	</g>
	<g
   id="g379">
		<g
   id="g377">
			<g
   id="g375">
				<path
   class="st23"
   d="m 720.1,2008.22 c 2.13,9.83 -4.12,19.53 -13.95,21.66 -9.84,2.13 -19.54,-4.12 -21.66,-13.95 -2.13,-9.84 4.12,-19.54 13.95,-21.67 9.83,-2.13 19.53,4.12 21.66,13.96 z"
   id="path373" />
			</g>
		</g>
	</g>
	<g
   id="g387">
		<g
   id="g385">
			<g
   id="g383">
				<path
   class="st23"
   d="m 837.54,1875.4 c 2.13,9.84 -4.12,19.53 -13.95,21.66 -9.84,2.13 -19.53,-4.12 -21.66,-13.95 -2.13,-9.84 4.12,-19.54 13.95,-21.67 9.83,-2.12 19.53,4.12 21.66,13.96 z"
   id="path381" />
			</g>
		</g>
	</g>
	<g
   id="g395">
		<g
   id="g393">
			<g
   id="g391">
				<path
   class="st23"
   d="m 939.05,1879.46 c 2.13,9.84 -4.12,19.54 -13.95,21.66 -9.84,2.13 -19.53,-4.12 -21.66,-13.95 -2.13,-9.83 4.12,-19.54 13.95,-21.66 9.83,-2.13 19.53,4.12 21.66,13.95 z"
   id="path389" />
			</g>
		</g>
	</g>
	<g
   id="g403">
		<g
   id="g401">
			<g
   id="g399">
				<path
   class="st23"
   d="m 597.04,1983.26 c 2.13,9.84 -4.12,19.54 -13.95,21.67 -9.84,2.13 -19.54,-4.12 -21.66,-13.95 -2.13,-9.83 4.12,-19.54 13.95,-21.66 9.83,-2.14 19.53,4.1 21.66,13.94 z"
   id="path397" />
			</g>
		</g>
	</g>
</g>
<g
   id="g409"
   transform="translate(-128.04,-117.5)">
	<rect
   x="561.01001"
   y="2054.8501"
   class="st23"
   width="74.599998"
   height="14.36"
   id="rect407" />
</g>
<g
   id="g413"
   transform="translate(-128.04,-117.5)">
	<rect
   x="612.89001"
   y="1907.4399"
   class="st23"
   width="74.599998"
   height="14.37"
   id="rect411" />
</g>
<g
   id="g417"
   transform="translate(-128.04,-117.5)">
	<rect
   x="767.63"
   y="2010.16"
   class="st23"
   width="74.599998"
   height="14.36"
   id="rect415" />
</g>
<g
   id="g421"
   transform="translate(-128.04,-117.5)">
	<rect
   x="834.53998"
   y="1808.42"
   class="st23"
   width="74.599998"
   height="14.37"
   id="rect419" />
</g>
<g
   id="g425"
   transform="translate(-128.04,-117.5)">
	<rect
   x="942.88"
   y="1928.63"
   class="st23"
   width="74.599998"
   height="14.37"
   id="rect423" />
</g>
<g
   id="g479"
   transform="translate(-128.04,-117.5)">
	<g
   id="g434">
		<linearGradient
   id="SVGID_20_"
   gradientUnits="userSpaceOnUse"
   x1="698.21399"
   y1="1657.7954"
   x2="720.3222"
   y2="1657.7954">
			<stop
   offset="0"
   style="stop-color:#D5E4FF"
   id="stop427" />
			<stop
   offset="1"
   style="stop-color:#EDFFFE"
   id="stop429" />
		</linearGradient>
		<rect
   x="698.21002"
   y="1596.35"
   class="st49"
   width="22.110001"
   height="122.9"
   id="rect432"
   style="fill:url(#SVGID_20_)" />
	</g>
	<g
   id="g443">
		<linearGradient
   id="SVGID_21_"
   gradientUnits="userSpaceOnUse"
   x1="737.03027"
   y1="1641.4128"
   x2="759.1391"
   y2="1641.4128">
			<stop
   offset="0"
   style="stop-color:#D5E4FF"
   id="stop436" />
			<stop
   offset="1"
   style="stop-color:#EDFFFE"
   id="stop438" />
		</linearGradient>
		<rect
   x="737.03003"
   y="1563.58"
   class="st50"
   width="22.110001"
   height="155.66"
   id="rect441"
   style="fill:url(#SVGID_21_)" />
	</g>
	<g
   id="g452">
		<linearGradient
   id="SVGID_22_"
   gradientUnits="userSpaceOnUse"
   x1="777.76349"
   y1="1649.9835"
   x2="799.87292"
   y2="1649.9835">
			<stop
   offset="0"
   style="stop-color:#D5E4FF"
   id="stop445" />
			<stop
   offset="1"
   style="stop-color:#EDFFFE"
   id="stop447" />
		</linearGradient>
		<rect
   x="777.76001"
   y="1580.72"
   class="st51"
   width="22.110001"
   height="138.52"
   id="rect450"
   style="fill:url(#SVGID_22_)" />
	</g>
	<g
   id="g461">
		<linearGradient
   id="SVGID_23_"
   gradientUnits="userSpaceOnUse"
   x1="819.61591"
   y1="1669.8816"
   x2="841.72467"
   y2="1669.8816">
			<stop
   offset="0"
   style="stop-color:#D5E4FF"
   id="stop454" />
			<stop
   offset="1"
   style="stop-color:#EDFFFE"
   id="stop456" />
		</linearGradient>
		<rect
   x="819.62"
   y="1620.52"
   class="st52"
   width="22.110001"
   height="98.720001"
   id="rect459"
   style="fill:url(#SVGID_23_)" />
	</g>
	<g
   id="g465">
		<rect
   x="698.21002"
   y="1641.3"
   class="st53"
   width="22.110001"
   height="77.940002"
   id="rect463" />
	</g>
	<g
   id="g469">
		<rect
   x="737.03003"
   y="1620.52"
   class="st53"
   width="22.110001"
   height="98.720001"
   id="rect467" />
	</g>
	<g
   id="g473">
		<rect
   x="777.76001"
   y="1631.39"
   class="st53"
   width="22.110001"
   height="87.849998"
   id="rect471" />
	</g>
	<g
   id="g477">
		<rect
   x="819.62"
   y="1657.8"
   class="st53"
   width="22.110001"
   height="61.450001"
   id="rect475" />
	</g>
</g>
<g
   id="g533"
   transform="translate(-128.04,-117.5)">
	<g
   id="g488">
		<linearGradient
   id="SVGID_24_"
   gradientUnits="userSpaceOnUse"
   x1="862.22028"
   y1="1678.0181"
   x2="884.32922"
   y2="1678.0181">
			<stop
   offset="0"
   style="stop-color:#D5E4FF"
   id="stop481" />
			<stop
   offset="1"
   style="stop-color:#EDFFFE"
   id="stop483" />
		</linearGradient>
		<rect
   x="862.21997"
   y="1636.79"
   class="st54"
   width="22.110001"
   height="82.449997"
   id="rect486"
   style="fill:url(#SVGID_24_)" />
	</g>
	<g
   id="g497">
		<linearGradient
   id="SVGID_25_"
   gradientUnits="userSpaceOnUse"
   x1="901.03717"
   y1="1647.6956"
   x2="923.146"
   y2="1647.6956">
			<stop
   offset="0"
   style="stop-color:#D5E4FF"
   id="stop490" />
			<stop
   offset="1"
   style="stop-color:#EDFFFE"
   id="stop492" />
		</linearGradient>
		<rect
   x="901.03998"
   y="1576.15"
   class="st55"
   width="22.110001"
   height="143.10001"
   id="rect495"
   style="fill:url(#SVGID_25_)" />
	</g>
	<g
   id="g506">
		<linearGradient
   id="SVGID_26_"
   gradientUnits="userSpaceOnUse"
   x1="941.77039"
   y1="1660.8199"
   x2="963.87872"
   y2="1660.8199">
			<stop
   offset="0"
   style="stop-color:#D5E4FF"
   id="stop499" />
			<stop
   offset="1"
   style="stop-color:#EDFFFE"
   id="stop501" />
		</linearGradient>
		<rect
   x="941.77002"
   y="1602.4"
   class="st56"
   width="22.110001"
   height="116.85"
   id="rect504"
   style="fill:url(#SVGID_26_)" />
	</g>
	<g
   id="g515">
		<linearGradient
   id="SVGID_27_"
   gradientUnits="userSpaceOnUse"
   x1="983.62231"
   y1="1628.9857"
   x2="1005.7311"
   y2="1628.9857">
			<stop
   offset="0"
   style="stop-color:#D5E4FF"
   id="stop508" />
			<stop
   offset="1"
   style="stop-color:#EDFFFE"
   id="stop510" />
		</linearGradient>
		<rect
   x="983.62"
   y="1538.73"
   class="st57"
   width="22.110001"
   height="180.52"
   id="rect513"
   style="fill:url(#SVGID_27_)" />
	</g>
	<g
   id="g519">
		<rect
   x="862.21997"
   y="1675.3199"
   class="st53"
   width="22.110001"
   height="43.93"
   id="rect517" />
	</g>
	<g
   id="g523">
		<rect
   x="901.03998"
   y="1653.78"
   class="st53"
   width="22.110001"
   height="65.470001"
   id="rect521" />
	</g>
	<g
   id="g527">
		<rect
   x="941.77002"
   y="1660.8199"
   class="st53"
   width="22.110001"
   height="58.419998"
   id="rect525" />
	</g>
	<g
   id="g531">
		<rect
   x="983.62"
   y="1585.08"
   class="st53"
   width="22.110001"
   height="134.16"
   id="rect529" />
	</g>
</g>
<g
   id="g551"
   transform="translate(-128.04,-117.5)">
	<g
   id="g537">
		<polygon
   class="st58"
   points="1654.82,2546.46 1664.88,2549.73 1776.95,2205.56 1413.42,2205.56 1302.42,2546.46 1312.48,2549.73 1421.1,2216.14 1762.38,2216.14 "
   id="polygon535" />
	</g>
	<g
   id="g541">
		<polygon
   class="st58"
   points="1770.97,2216.14 1879.6,2549.73 1889.66,2546.46 1778.65,2205.56 1415.13,2205.56 1527.2,2549.73 1537.26,2546.46 1429.7,2216.14 "
   id="polygon539" />
	</g>
	<g
   id="g545">
		<rect
   x="1389.35"
   y="2309.5801"
   class="st58"
   width="417.70999"
   height="10.58"
   id="rect543" />
	</g>
	<g
   id="g549">
		<rect
   x="1346.3199"
   y="2424.4299"
   class="st58"
   width="499.76001"
   height="10.58"
   id="rect547" />
	</g>
</g>
<g
   id="g661"
   transform="translate(-128.04,-117.5)">
	<g
   id="g557">
		<g
   id="g555">
			<path
   class="st17"
   d="m 1592.12,1462.26 c 0,0 8.51,-14.89 -4.99,-54.79 -13.05,-38.59 -58.22,-35.09 -72.57,-10.37 -14.36,24.72 -9.51,40.08 11.63,67.99 21.13,27.91 57.16,9.93 65.93,-2.83 z"
   id="path553" />
		</g>
	</g>
	<g
   id="g563">
		<g
   id="g561">
			<path
   class="st17"
   d="m 1487.2,2148.75 c 0,0 -2.23,16.39 -2.51,18.85 -0.28,2.46 -24.86,-1.45 -24.86,-1.45 l -1.99,-19.51 c -0.01,0 26.29,-0.21 29.36,2.11 z"
   id="path559" />
		</g>
	</g>
	<g
   id="g569">
		<g
   id="g567">
			<path
   class="st59"
   d="m 1484.95,2165.51 c 0,0 7.79,9.87 15.32,14.18 7.53,4.3 19.37,6.01 23.83,10.46 3.22,3.22 11.71,17.06 -19.58,16.78 -31.29,-0.28 -46.38,1.95 -49.73,-3.35 -3.35,-5.31 4.85,-39.18 4.85,-39.18 0,0 7.66,2.16 25.31,1.11 z"
   id="path565" />
		</g>
	</g>
	<g
   id="g575">
		<g
   id="g573">
			<path
   class="st17"
   d="m 1657.43,2148.75 c 0,0 -2.24,16.39 -2.51,18.85 -0.28,2.46 -24.87,-1.45 -24.87,-1.45 l -1.99,-19.51 c 0,0 26.3,-0.21 29.37,2.11 z"
   id="path571" />
		</g>
	</g>
	<g
   id="g581">
		<g
   id="g579">
			<path
   class="st59"
   d="m 1655.18,2165.51 c 0,0 7.79,9.87 15.32,14.18 7.53,4.3 35.26,7.84 39.71,12.29 3.22,3.22 8.56,16.16 -35.46,14.95 -31.28,-0.86 -46.38,1.95 -49.73,-3.35 -3.35,-5.31 4.85,-39.18 4.85,-39.18 0,0 9.72,1.73 25.31,1.11 z"
   id="path577" />
		</g>
	</g>
	<g
   id="g587">
		<g
   id="g585">
			<path
   class="st60"
   d="m 1495.48,1740.72 c 0,0 -12.6,39.17 -10.95,72.93 1.66,33.76 -6.52,70.7 -9.86,105.96 -3.73,39.31 -18.98,132.38 -19.53,153.41 -0.55,21.03 2.37,88.18 2.37,88.18 l 30.53,0.74 c 0,0 25.64,-162.71 32.28,-179.31 6.64,-16.6 39.57,-134.96 40.68,-148.24 1.11,-13.28 -65.52,-93.67 -65.52,-93.67 z"
   id="path583" />
		</g>
	</g>
	<g
   id="g593">
		<g
   id="g591">
			<path
   class="st60"
   d="m 1622.07,1736.64 c 0,0 18.53,103.57 20.75,124.23 2.21,20.66 3.69,99.99 4.8,112.9 1.11,12.91 7.38,168.98 13.28,188.17 h -34.04 c 0,0 -34.95,-113.46 -34.95,-167.14 0,-53.68 -23.15,-116.7 -38.09,-152.12 -14.94,-35.42 -49.14,-36.26 -58.33,-101.97 -0.01,0.01 114.14,-24.91 126.58,-4.07 z"
   id="path589" />
		</g>
	</g>
	<g
   id="g599">
		<g
   id="g597">
			<path
   class="st17"
   d="m 1579.77,1472.79 c 0,0 -3.84,11.18 0,19.15 3.84,7.98 -49.06,3.19 -49.06,3.19 0,0 2.39,-16.48 -4.52,-30.04 -6.92,-13.56 53.58,7.7 53.58,7.7 z"
   id="path595" />
		</g>
	</g>
	<g
   id="g605">
		<g
   id="g603">
			<path
   class="st60"
   d="m 1493.03,1749.26 c 0,0 19.02,19.54 130.74,-3.04 l -1.7,-9.57 -127,4.78 z"
   id="path601" />
		</g>
	</g>
	<g
   id="g611">
		<g
   id="g609">
			<path
   class="st17"
   d="m 1587.78,1494.53 c 0,0 19.54,1.99 25.12,3.06 5.58,1.06 43.16,-6.72 50.87,-7.52 7.71,-0.8 40.58,-23.32 41.65,-25.98 1.06,-2.66 20,-50.6 21.06,-60.97 1.06,-10.37 18.45,-5.02 16.95,2.13 -2.79,13.36 -6.37,45.81 -8.33,55.21 -2.12,10.15 -7.8,33.15 -10.99,35.98 -3.19,2.83 -32.79,25.34 -61.77,34.91 -28.98,9.57 -50.79,23.66 -50.79,23.66 h -142.81 c 0,0 -55.55,-79.4 -56.74,-91.36 -1.2,-11.96 38.8,-91.47 46.77,-101.44 7.98,-9.97 19.51,3.25 19.51,3.25 0,0 -23.9,70.12 -27.09,80.09 -3.19,9.97 27.8,53.77 36.3,53.9 8.51,0.13 30.35,-2.66 40.06,-3.06 9.7,-0.4 19.94,-4.65 19.94,-4.65 z"
   id="path607" />
		</g>
	</g>
	<g
   id="g617">
		<g
   id="g615">
			<path
   class="st61"
   d="m 1649.32,1547.57 c 0,0 -17.48,11.62 -19.08,31.56 -1.6,19.94 -7.98,51.44 -11.17,62.21 -3.19,10.77 2.79,88.92 3.59,94.51 0.8,5.58 -110.51,18.85 -127.6,5.58 0,0 -4.79,-72.97 -6.78,-93.71 -1.99,-20.74 -11.56,-70.98 -14.75,-77.76 -3.19,-6.78 -41.87,-61.04 -43.47,-68.19 0,0 20.01,-31.9 34.37,-32.3 0,0 22.8,26.72 30.23,27.91 7.43,1.2 53,-7.16 53.01,-7.22 0,0 4.97,6.77 31.41,-1.2 0,0 31.49,3.55 36.61,4.21 6.2,0.79 49.32,-5.41 49.32,-5.41 0,0 17.3,29.21 14.27,43.95 z"
   id="path613" />
		</g>
	</g>
	<g
   id="g623">
		<g
   id="g621">
			<path
   class="st17"
   d="m 1725.48,1409.35 c 0,0 3.9,-18.48 -0.8,-23.79 -2.67,-3.02 -9.11,-11.02 -9.69,-12.19 -0.59,-1.17 -7.49,-5.14 -7.49,-7.05 0,-1.91 6.76,-4.26 12.63,1.17 5.87,5.43 9.55,6.61 11.9,6.02 2.35,-0.59 5.73,-20.12 6.02,-24.97 0.29,-4.85 2.17,-17.63 5.2,-16.75 3.03,0.88 2.88,6.46 2.88,6.46 0,0 3.53,-9.69 5.88,-7.78 2.35,1.91 2.06,6.61 2.06,6.61 0,0 4.41,-5.44 5.58,-1.47 1.18,3.97 0,7.49 0,7.49 0,0 4.55,-2.5 4.85,3.67 0.29,6.17 -1.32,24.24 -4.55,30.7 -3.23,6.46 -15.33,23.37 -16.77,29.97 -1.46,6.62 -17.7,1.91 -17.7,1.91 z"
   id="path619" />
		</g>
	</g>
	<g
   id="g629">
		<g
   id="g627">
			<path
   class="st17"
   d="m 1474.4,1376.89 c 0,0 13.29,-22.33 17.81,-24.33 4.52,-1.99 10.9,-3.12 16.48,-7.11 5.58,-3.99 12.96,-7.31 12.56,-8.64 -0.4,-1.33 -6.98,-0.8 -14.02,2.26 -7.04,3.06 -10.14,1.58 -10.8,-0.02 -0.66,-1.59 3.76,-12.86 5.88,-15.51 2.13,-2.66 17.28,-17.9 14.75,-20.16 -2.52,-2.26 -12.36,6.11 -13.96,7.84 0,0 7.84,-16.48 4.78,-17.28 -3.06,-0.8 -8.77,5.05 -8.77,5.05 0,0 0.66,-14.09 -14.49,8.77 0,0 3.19,-7.58 -1.46,-5.05 -4.65,2.53 -9.17,16.75 -10.63,23.93 -1.46,7.18 -8.1,30.04 -13.75,35.56 -5.66,5.52 15.62,14.69 15.62,14.69 z"
   id="path625" />
		</g>
	</g>
	<g
   id="g635">
		<g
   id="g633">
			<path
   class="st62"
   d="m 1526.19,1465.09 c 0,0 7,0.62 21.89,-4.52 14.89,-5.14 16,-31.17 19.22,-28.09 6.57,6.29 12.77,1.95 15.25,-1.77 0,0 -7.27,-9.57 -3.9,-14.18 3.37,-4.61 8.85,-7.97 8.85,-7.97 0,0 -10.47,-50.47 -58.12,-27.48 -55.83,26.94 -3.19,84.01 -3.19,84.01 z"
   id="path631" />
		</g>
	</g>
	<g
   id="g641">
		<g
   id="g639">
			<path
   class="st61"
   d="m 1579.77,1491.94 -1.68,-7.29 c 0,0 -30.41,-0.62 -47.01,1.79 l -1.75,8.72 c 0.01,0 21.25,9.63 50.44,-3.22 z"
   id="path637" />
		</g>
	</g>
	<g
   id="g647">
		<g
   id="g645">
			<path
   class="st17"
   d="m 1572.27,1426.1 c -2.76,-4.59 -12.98,-7.69 -14.18,5.32 -0.93,10.08 18.26,21.09 18.43,11.7 0.18,-9.4 -2.41,-13.96 -4.25,-17.02 z"
   id="path643" />
		</g>
	</g>
	<g
   id="g653">
		<g
   id="g651">
			<path
   class="st63"
   d="m 1726.2,1405.15 c 0,0 10.97,0.27 16.29,5.08 0,0 0.35,3.05 -0.89,5.46 0,0 -9.51,-4.44 -16.81,-5.27 0.02,0 0.14,-3.99 1.41,-5.27 z"
   id="path649" />
		</g>
	</g>
	<g
   id="g659">
		<g
   id="g657">
			<path
   class="st62"
   d="m 1739.14,1407.89 c 1.01,2.4 -0.11,5.17 -2.51,6.18 -2.4,1.01 -5.17,-0.11 -6.18,-2.51 -1.01,-2.4 0.11,-5.17 2.51,-6.18 2.4,-1.02 5.17,0.11 6.18,2.51 z"
   id="path655" />
		</g>
	</g>
</g>
<g
   id="XMLID_24_"
   transform="translate(-128.04,-117.5)">
	<path
   id="XMLID_26_"
   class="st64"
   d="m 575.9,681.16 v 0 c -92.16,0 -166.88,-74.71 -166.88,-166.88 v 0 c 0,-92.16 74.71,-166.88 166.88,-166.88 v 0 c 92.16,0 166.88,74.71 166.88,166.88 v 0 c -0.01,92.17 -74.72,166.88 -166.88,166.88 z" />
	<path
   id="XMLID_25_"
   class="st23"
   d="m 486.98,570.15 c 16.15,10.35 35.32,16.39 55.92,16.39 67.74,0 106,-57.21 103.7,-108.53 7.12,-5.14 13.31,-11.56 18.2,-18.89 -6.55,2.9 -13.58,4.86 -20.95,5.74 7.53,-4.51 13.32,-11.66 16.04,-20.18 -7.05,4.18 -14.86,7.22 -23.16,8.86 -6.66,-7.09 -16.14,-11.52 -26.64,-11.52 -23.55,0 -40.85,21.97 -35.54,44.79 -30.32,-1.52 -57.21,-16.04 -75.19,-38.12 -9.56,16.4 -4.96,37.86 11.29,48.71 -5.98,-0.19 -11.62,-1.84 -16.53,-4.57 -0.39,16.91 11.72,32.71 29.26,36.24 -5.14,1.4 -10.76,1.71 -16.47,0.62 4.63,14.5 18.11,25.04 34.08,25.34 -15.33,12.03 -34.65,17.4 -54.01,15.12 z" />
</g>
<g
   id="XMLID_1_"
   transform="translate(-128.04,-117.5)">
	<path
   id="XMLID_3_"
   class="st65"
   d="m 2585.35,528.1 v 0 c -113.39,0 -205.3,-91.92 -205.3,-205.3 v 0 c 0,-113.38 91.92,-205.3 205.3,-205.3 v 0 c 113.38,0 205.3,91.92 205.3,205.3 v 0 c 0,113.38 -91.92,205.3 -205.3,205.3 z" />
	<path
   id="XMLID_2_"
   class="st23"
   d="m 2554.06,446.89 h 49.98 V 321.74 h 34.87 l 3.72,-41.9 h -38.58 c 0,0 0,-15.64 0,-23.87 0,-9.88 1.98,-13.78 11.54,-13.78 7.69,0 27.05,0 27.05,0 V 198.7 c 0,0 -28.51,0 -34.6,0 -37.19,0 -53.96,16.38 -53.96,47.73 0,27.31 0,33.41 0,33.41 h -25.99 v 42.43 h 25.99 v 124.62 z" />
</g>
<g
   id="g677"
   transform="translate(-128.04,-117.5)">
	<g
   id="g671">
		<path
   class="st66"
   d="m 637.65,1019.88 20.01,-3.97 31.59,-69.5 -7.92,-39.94 c 0,0 30.55,-8.03 37.28,44.98 6.73,53.02 8.03,38.92 8.03,38.92 0,0 65.71,-12.77 72.3,-8.15 4.79,3.36 19.52,68.22 27.22,103.46 3.88,17.74 -3.76,36.47 -19.49,43.96 -2.23,1.07 -4.54,1.89 -6.88,2.35 -16.38,3.25 -102.69,6.53 -102.69,6.53 l -34.56,6.85 z"
   id="path669" />
	</g>
	<g
   id="g675">
		<polygon
   class="st66"
   points="651.91,1147.87 625.32,1013.79 578.21,1020.27 617.65,1154.67 "
   id="polygon673" />
	</g>
</g>
<g
   id="XMLID_68_"
   transform="translate(-128.04,-117.5)">
	<path
   id="XMLID_74_"
   class="st67"
   d="m 965.88,900.02 v 0 c -102.7,0 -185.96,-83.26 -185.96,-185.96 v 0 c 0,-102.7 83.26,-185.96 185.96,-185.96 v 0 c 102.7,0 185.96,83.26 185.96,185.96 v 0 c 0,102.7 -83.26,185.96 -185.96,185.96 z" />
	<g
   id="XMLID_69_">
		<g
   id="XMLID_71_">
			<rect
   id="XMLID_73_"
   x="881.56"
   y="672.60999"
   class="st23"
   width="38.490002"
   height="124.33" />
			<path
   id="XMLID_72_"
   class="st23"
   d="m 900.61,656.33 c 12.57,0 22.76,-10.28 22.76,-22.95 0,-12.67 -10.19,-22.94 -22.76,-22.94 -12.57,0 -22.76,10.27 -22.76,22.94 0.01,12.67 10.19,22.95 22.76,22.95 z" />
		</g>
		<path
   id="XMLID_70_"
   class="st23"
   d="m 981.57,731.68 c 0,-17.48 8.04,-27.89 23.45,-27.89 14.15,0 20.95,10 20.95,27.89 0,17.91 0,65.27 0,65.27 h 38.31 c 0,0 0,-45.42 0,-78.72 0,-33.3 -18.88,-49.41 -45.24,-49.41 -26.37,0 -37.47,20.54 -37.47,20.54 v -16.75 h -36.92 v 124.33 h 36.92 c 0,0 0,-46.11 0,-65.26 z" />
	</g>
</g>
<g
   id="g688"
   transform="translate(-128.04,-117.5)">
	<path
   class="st68"
   d="m 2320.15,329.14 c -5.24,-26.62 -31.5,-47.44 -58.61,-46.46 -26.87,0.97 -51.34,23.24 -54.99,49.85 -3.89,-26.58 -28.55,-48.63 -55.43,-49.36 -27.12,-0.74 -53.2,20.31 -58.2,46.98 -3.64,19.42 3.02,39.64 13.96,56.1 10.93,16.46 25.86,29.79 40.62,42.93 20.68,18.4 39.79,35.7 60.47,54.11 20.51,-18.59 37.97,-36.05 58.48,-54.64 14.64,-13.27 29.46,-26.73 40.24,-43.29 10.79,-16.56 17.27,-36.84 13.46,-56.22 z"
   id="path686" />
</g>
<g
   id="g818"
   transform="translate(-128.04,-117.5)">
	<g
   id="g692">
		<path
   class="st62"
   d="m 985.28,2717.07 c 0,0 -9.79,14.65 -23.53,17.82 -13.74,3.17 -27.27,8.2 -27.37,16.87 -0.1,8.67 39.72,13.84 55.44,5.1 23.46,-13.04 25.85,-9.11 28.45,-15.63 2.6,-6.52 -3.12,-23.95 -2.96,-26.03 0.2,-2.57 -30.03,1.87 -30.03,1.87 z"
   id="path690" />
	</g>
	<g
   id="g696">
		<path
   class="st69"
   d="m 986.8,2709.84 c 0,0 -1.79,7.08 -1.52,7.23 0.27,0.15 30.96,3.81 30.03,-1.87 -0.75,-4.61 -1.83,-9.61 -1.83,-9.61 z"
   id="path694" />
	</g>
	<g
   id="g700">
		<path
   class="st62"
   d="m 1088.56,2716.09 c 0,0 -6.99,14.02 -18.92,18.79 -12.76,5.1 -22.99,10.97 -22.76,19.41 0.23,8.45 31.19,17.01 53.71,0.8 14.23,-10.24 18.74,-10.29 21.02,-16.74 2.28,-6.45 -3.96,-23.21 -3.88,-25.24 0.11,-2.5 -29.17,2.98 -29.17,2.98 z"
   id="path698" />
	</g>
	<g
   id="g704">
		<path
   class="st69"
   d="m 1088.22,2708.82 c 0,0 0.08,7.14 0.35,7.28 0.26,0.14 29.93,2.58 29.17,-2.98 -0.6,-4.41 -2.88,-9.75 -2.88,-9.75 z"
   id="path702" />
	</g>
	<g
   id="g708">
		<path
   class="st70"
   d="m 979.46,2280.67 c 0,0 -27.56,121.56 -33.85,158.58 -5.36,31.52 -9.63,64.33 -7.06,87.08 3.18,28.17 43.05,174.14 41.38,182.4 -1.67,8.26 41.72,1.32 41.72,1.32 0,0 -30.32,-162.83 -24.27,-193.14 4.49,-22.45 43.8,-171.55 49.82,-163.91 6.02,7.65 13.49,140.72 17.96,162.81 4.46,22.09 18.16,196.63 18.16,196.63 0,0 30.62,4.52 38.8,-2.4 0,0 3.72,-149.04 0.88,-190.45 -1.08,-15.78 18.49,-189.24 -6.61,-259.08 -13.27,-36.88 -136.93,20.16 -136.93,20.16 z"
   id="path706" />
	</g>
	<g
   id="g712">
		<path
   class="st71"
   d="m 859.5,2170.17 c 19.64,-2.76 81.44,24.62 87.05,22.55 3.86,-1.42 12.92,-30.95 19.4,-53.29 3.83,-13.22 6.75,-23.93 7.16,-24.81 l 0.02,-0.05 c -0.06,0.59 -1.06,10.7 0.21,23.98 0.08,0.86 0.18,1.73 0.28,2.62 0.03,0.23 0.06,0.46 0.09,0.69 0.58,4.75 1.46,9.83 2.78,14.96 1.96,7.57 2.89,17.54 3.24,28.06 v 0.04 c 0,0.08 0,0.16 0.01,0.24 0,0.24 0.02,0.48 0.02,0.73 0,0.1 0.01,0.2 0.01,0.3 0.55,19.14 -0.77,39.77 -1.32,50.75 -0.86,17.01 4.73,24.67 4.89,24.89 0,0.01 0,0.01 0,0.01 l 5.92,-0.83 4.28,-0.6 0.05,-0.01 5.71,-0.8 22.41,-3.15 8.12,-1.14 1.92,-0.27 14.2,-2 40.03,-5.63 4.39,-0.61 1.81,-0.25 15.1,-2.13 6.82,-0.95 h 0.02 c 0,0 5.8,-41.1 6.24,-63.31 0.4,-20.41 11.32,-61.83 13.11,-68.46 0.01,-0.05 0.02,-0.09 0.04,-0.14 0.01,-0.06 0.03,-0.12 0.05,-0.18 0.03,-0.11 0.06,-0.21 0.08,-0.29 0.01,-0.05 0.02,-0.1 0.04,-0.14 0,-0.02 0.01,-0.03 0.01,-0.04 0,-0.01 0.01,-0.03 0.01,-0.04 0.01,-0.05 0.01,-0.07 0.01,-0.07 0,0 32.67,34.33 39.01,49.3 1.93,4.55 7.84,16.91 15.37,31.95 5.15,-9.82 8.37,-16.65 8.37,-18.36 0,-0.21 -0.01,-0.43 -0.01,-0.67 -0.48,-14.81 -16,-74.86 -28.25,-114.09 -9.51,-19.12 -17.71,-34.57 -20.34,-36.46 -3.99,-2.86 -20.76,-10.04 -35.4,-15.85 -0.48,-0.19 -0.96,-0.38 -1.43,-0.56 -1.37,-0.54 -2.71,-1.07 -4.02,-1.58 -0.65,-0.25 -1.3,-0.5 -1.93,-0.74 -0.35,-0.13 -0.69,-0.26 -1.04,-0.39 -0.28,-0.11 -0.56,-0.22 -0.84,-0.32 v 0 c -7.32,-2.78 -12.88,-4.73 -14.03,-4.79 -0.19,-0.01 -0.5,-0.01 -0.91,0.01 -0.48,0.01 -1.11,0.04 -1.85,0.09 -9.05,0.53 -36.05,3.06 -44.74,3.89 -1.58,0.15 -2.56,0.24 -2.71,0.26 -0.01,0 -0.02,0 -0.02,0 0,0 -4.14,1.89 -10.37,4.74 v 0.01 l -0.58,0.26 c -3.77,1.73 -8.13,4.03 -12.73,6.55 -9.03,4.95 -19.01,10.74 -27.29,14.67 -8.12,3.86 -19.23,9.24 -20.17,9.99 l -41.11,118.55 -71.32,-13.03 z"
   id="path710" />
	</g>
	<g
   id="g716">
		<path
   class="st72"
   d="m 983.34,2261.81 c 0,0 -3.01,3.6 -3.88,18.86 0,0 123.84,-14.45 136.93,-20.14 0,0 0.51,-16.81 -2.26,-17.11 -3.06,-0.32 -130.79,18.39 -130.79,18.39 z"
   id="path714" />
	</g>
	<g
   id="g720">
		<path
   class="st17"
   d="m 1088.95,1993.98 c -0.38,19.44 -38.02,30.07 -38.02,30.07 0,0 -15.74,-19.73 -11.98,-21.62 1.48,-0.74 2.08,-3.69 2.26,-6.99 0.17,-3.14 -0.03,-6.61 -0.21,-8.81 -0.11,-1.37 -0.22,-2.26 -0.22,-2.26 0,0 5.38,-5.67 12.22,-12.43 11.95,-11.82 28.39,-26.96 28.41,-20.94 0,0.32 -0.04,0.7 -0.14,1.14 -2.89,13.54 7.68,41.84 7.68,41.84 z"
   id="path718" />
	</g>
	<g
   id="g724">
		<path
   class="st62"
   d="m 1085.83,2246.4 c 0,0 2.7,17.04 2.94,21.49 l 5.73,-1.14 c 0,0 -1.58,-18.03 -2.51,-21.06 z"
   id="path722" />
	</g>
	<g
   id="g728">
		<path
   class="st62"
   d="m 993.67,2259.82 c 0,0 -2.17,15.49 -2.22,21.35 l 6.06,-0.79 c 0,0 1.24,-19.35 1.93,-21.37 z"
   id="path726" />
	</g>
	<g
   id="g732">
		<path
   class="st21"
   d="m 1074.46,1965.5 c 0,0 0,0 0,0 -0.08,0.12 -1.67,2.5 -4.4,5.93 -5.78,7.27 -16.64,19.2 -28.85,24 0.17,-3.14 -0.03,-6.61 -0.21,-8.81 -1.25,-0.03 -2.5,-0.18 -3.74,-0.45 3.35,-5.85 8.18,-11.98 8.18,-11.98 l 7.55,-2.26 z"
   id="path730" />
	</g>
	<g
   id="g736">
		<path
   class="st17"
   d="m 1081.68,1951.25 c -3.26,7.08 -6.35,12.21 -7.22,14.25 0,0 0,0 0,0 -0.57,1.32 -2.13,3.48 -4.4,5.93 -6.2,6.68 -17.73,15.49 -29.06,15.19 -1.25,-0.03 -2.5,-0.18 -3.74,-0.45 -4.58,-1 -9.98,-3.13 -12.95,-8.95 -23.48,-45.97 -6.48,-83.55 -6.48,-83.55 0,0 64.19,-18.15 74.24,1.17 7.04,13.55 -2.74,39.77 -10.39,56.41 z"
   id="path734" />
	</g>
	<g
   id="g740">
		<path
   class="st45"
   d="m 1017.83,1893.66 c 0,0 -5.96,-0.33 -7.44,-11.63 -1.46,-11.17 1.49,-14.26 1.49,-14.26 0,0 26.5,-11.09 36.02,-12.54 9.52,-1.44 32.92,-2.83 38.4,3.44 0,0 13.33,-3.1 16.96,19.03 5.76,35.1 -19.63,69.18 -19.63,69.18 0,0 0.22,-22.93 -4.84,-25.97 -5.06,-3.04 -9.42,4.19 -9.42,4.19 l -10.34,1.85 c 0,0 15.71,-33.92 -3.13,-35.18 -18.86,-1.25 -27.28,3.86 -38.07,1.89 z"
   id="path738" />
	</g>
	<g
   id="g744">
		<path
   class="st17"
   d="m 1069.66,1915.96 c 0.98,-10.1 19.25,-13.96 18.03,-3.37 -1.22,10.59 -10.22,20.76 -14.38,20.4 -4.16,-0.35 -4.4,-9.33 -3.65,-17.03 z"
   id="path742" />
	</g>
	<g
   id="g748">
		<path
   class="st44"
   d="m 1196.46,2173.64 c 0,-0.21 -0.01,-0.43 -0.01,-0.67 -0.35,-14.77 -7.62,-73.92 -19.87,-113.15 -5.94,-19.05 -7.32,-32.35 -9.62,-34 -3.99,-2.86 -39.45,-13.35 -54.5,-19.25 -0.48,-0.19 -0.96,-0.38 -1.43,-0.56 -1.37,-0.54 -2.71,-1.07 -4.02,-1.58 -0.65,-0.25 -1.3,-0.5 -1.93,-0.74 -0.35,-0.13 -0.69,-0.26 -1.04,-0.39 -0.28,-0.11 -0.56,-0.22 -0.84,-0.32 -0.02,0.02 -0.05,0.05 -0.08,0.08 -1.34,1.5 -8.3,9.41 -16.61,21.23 -15.54,22.1 -35.78,57.89 -32.68,90.93 0.99,10.61 2.22,25.84 4.29,42.93 0.18,1.46 0.36,2.93 0.55,4.42 0.5,3.93 1.05,7.95 1.65,12.02 0.36,2.44 0.74,4.9 1.13,7.37 4.12,25.62 17.02,43.09 28.47,63.98 0.1,0.18 0.2,0.35 0.3,0.53 0.05,0.1 0.11,0.2 0.16,0.3 0.24,0.44 0.49,0.89 0.73,1.34 0.39,0.73 0.78,1.47 1.17,2.21 0.22,0.42 0.44,0.85 0.66,1.28 2.19,4.21 4.34,8.51 6.42,12.83 1.35,2.79 2.67,5.59 3.96,8.37 0.13,0.29 0.27,0.58 0.4,0.87 0,0 2.11,4.9 4.81,11.19 0.99,2.31 2.07,4.81 3.15,7.32 0.74,1.72 1.48,3.46 2.2,5.14 0.63,1.47 1.25,2.9 1.83,4.26 1.3,3.03 2.43,5.69 3.22,7.54 0.59,1.39 0.98,2.33 1.11,2.65 3.94,9.86 6.78,17.47 8.1,21.02 0.52,1.43 0.8,2.21 0.8,2.21 l 39.62,-21.87 c 7.52,-3.77 3.59,-24.04 0.76,-31.96 -2.35,-6.58 -5.66,-13.64 -9.39,-20.94 -1.53,-2.98 -3.12,-6.01 -4.75,-9.05 12.4,-21.66 24.95,-44 32.91,-59.18 5.15,-9.83 8.37,-16.65 8.37,-18.36 z m -62.99,-61.99 c 0.01,-0.05 0.02,-0.09 0.04,-0.14 0.01,-0.06 0.03,-0.12 0.05,-0.18 0.02,-0.1 0.05,-0.19 0.08,-0.29 0.01,-0.05 0.02,-0.1 0.04,-0.14 0,-0.02 0.01,-0.03 0.01,-0.04 0,-0.01 0.01,-0.03 0.01,-0.04 0,0 19.27,30.12 17.82,56.29 -0.22,4.07 -4.27,14.37 -10.17,27.56 0,0.01 0,0.01 -0.01,0.02 -2.14,4.81 -4.54,10 -7.08,15.42 -0.1,-0.22 -0.19,-0.45 -0.28,-0.68 -3.69,-8.99 -6.08,-17.43 -6.08,-24.81 -0.01,-0.01 1.62,-57.42 5.57,-72.97 z"
   id="path746" />
	</g>
	<g
   id="g752">
		<path
   class="st44"
   d="m 833.18,2129.99 89.7,19.54 42.76,-111.82 c 0.95,-0.75 13.2,-7.35 21.32,-11.21 8.45,-4.02 19.14,-8.99 28.63,-13.37 4.53,-2.1 8.8,-4.05 12.4,-5.71 l 0.3,0.23 c 0,0 -5.29,17.63 -12.15,61.64 0,0 0,0.01 0,0.01 -0.23,1.48 -0.46,2.98 -0.7,4.52 -0.02,0.18 -0.05,0.36 -0.08,0.53 -0.15,1.02 -0.31,2.05 -0.46,3.09 -0.02,0.12 -0.04,0.25 -0.06,0.37 -0.11,0.7 -0.21,1.41 -0.31,2.12 -0.26,1.74 -0.52,3.51 -0.77,5.31 -3.06,21.42 -7.34,57.88 -11.46,94.68 v 0.02 c -3.26,29.01 -10.67,58.77 -13.03,80.99 0,0.01 0,0.03 0,0.04 -0.47,4.35 -1.58,10.15 -3.08,16.7 -0.17,0.74 -0.34,1.49 -0.52,2.25 -6.64,28.04 -19.52,67.72 -19.52,67.72 l -3.75,-3.47 -11.11,-10.26 c -2.56,-2.36 -3.53,-5.98 -2.5,-9.3 6.16,-19.88 27.11,-90.26 30.95,-139.73 0,-0.01 0,-0.03 0,-0.04 1.2,-15.54 -3.34,-30.19 -5.98,-44.07 -0.05,0.12 -0.09,0.24 -0.13,0.36 -2.21,6.13 -4.65,12.8 -7.11,19.3 v 0 c -6.61,17.44 -13.38,33.59 -16.19,34.62 -6.27,2.31 -124.39,-29.99 -125.2,-34.62 z"
   id="path750" />
	</g>
	<g
   id="g756">
		<path
   class="st73"
   d="m 1092.76,2051.2 -18.31,10.32 7.82,7.98 -20.83,112.45 c -4.25,-26.36 -6.18,-51.39 -7.62,-66.74 -4.79,-51.09 46.2,-108.72 49.38,-112.25 2.45,0.93 5.09,1.96 7.83,3.04 z"
   id="path754" />
	</g>
	<g
   id="g760">
		<path
   class="st73"
   d="m 1028.58,2007.15 c 0,0 -6.84,22.34 -14.81,78.1 -3.06,21.42 -7.34,57.88 -11.47,94.68 l -4.26,-105.31 8.72,-9.45 -7.75,-9.69 16.59,-42.36 c 4.53,-2.1 8.8,-4.06 12.4,-5.71 z"
   id="path758" />
	</g>
	<g
   id="g764">
		<path
   class="st74"
   d="m 1104.13,2003.2 -15.18,-9.22 c 0,0 -0.43,8.32 -38.02,30.07 l 10.68,30.07 z"
   id="path762" />
	</g>
	<g
   id="g768">
		<path
   class="st74"
   d="m 1040.93,1998.17 c 0,0 0.59,8.98 10,25.87 l -20.84,27.16 -1.52,-44.05 z"
   id="path766" />
	</g>
	<g
   id="g772">
		<path
   class="st75"
   d="m 1050.99,2024.04 c 0,0 4.04,16.15 2.58,20.67 0,0 -8.88,3.23 -15.26,-0.81 0,0.01 4.52,-11.3 12.68,-19.86 z"
   id="path770" />
	</g>
	<g
   id="g778">
		<g
   id="g776">
			<path
   class="st76"
   d="m 1030.12,2256.98 c -2.26,-11.4 -0.11,-45.54 -0.02,-46.99 l 1.93,0.12 c -0.02,0.35 -2.23,35.34 -0.02,46.49 z"
   id="path774" />
		</g>
	</g>
	<g
   id="g782">
		<path
   class="st77"
   d="m 1045.93,2251.73 c 0,0 -18.22,2.17 -24.25,3.68 l 0.79,20.43 23.86,-2.55 z"
   id="path780" />
	</g>
	<g
   id="g786">
		<path
   class="st75"
   d="m 1041.94,2042.46 c 0,0 -20.32,51.32 -17.01,108.77 3.44,59.56 9.07,81.16 9.07,81.16 l 12.53,15.71 5.53,-19.31 c 0,0 -16.82,-75.94 -5.96,-149.83 1.97,-13.39 4.89,-38.76 4.89,-38.76 z"
   id="path784" />
	</g>
	<g
   id="g790">
		<path
   class="st17"
   d="m 1103.01,2284.84 c 0,0 -4.36,8.72 -8.72,10.17 -4.36,1.45 -10.72,8.54 -10.72,8.54 l 30.71,16.17 c 0,0 8.18,-15.99 8.54,-26.16 0.36,-10.18 -19.81,-8.72 -19.81,-8.72 z"
   id="path788" />
	</g>
	<g
   id="g794">
		<path
   class="st71"
   d="m 1100.09,2285.66 -2.03,4.09 c 0,0 19.5,14.26 24.76,15.17 l 1.8,-5.45 z"
   id="path792" />
	</g>
	<g
   id="g798">
		<path
   class="st44"
   d="m 1098.06,2285.83 c 0,0 14.62,12.09 26.93,17.66 l 41.42,-74.5 -21.46,-41.49 c 0,-0.01 -45.92,91.07 -46.89,98.33 z"
   id="path796" />
	</g>
	<g
   id="g802">
		<path
   class="st70"
   d="m 974.33,2114.76 c -0.68,13.78 -0.58,26.02 -0.58,26.02 0,0 0,0 0,0.01 0,0.07 -0.02,0.44 -0.05,1.06 -0.03,-0.23 -0.06,-0.46 -0.09,-0.69 -2.21,6.13 -4.65,12.8 -7.11,19.3 -0.57,-7.52 -0.72,-14.54 -0.55,-21.03 0.99,-38.65 13.14,-58.91 13.14,-58.91 -2.78,6.73 -4.12,21.18 -4.76,34.24 z"
   id="path800" />
	</g>
	<g
   id="g806">
		<path
   class="st70"
   d="m 1159.93,2260.23 -33.16,40.05 28.41,-49.1 c 1.63,3.04 3.23,6.06 4.75,9.05 z"
   id="path804" />
	</g>
	<g
   id="g810">
		<path
   class="st78"
   d="m 919.12,2210.01 h -76.56 c -5.25,0 -9.81,-3.59 -11.05,-8.69 l -33.26,-137.3 c -1.73,-7.16 3.69,-14.04 11.05,-14.04 h 76.56 c 5.25,0 9.81,3.59 11.05,8.69 l 33.25,137.31 c 1.74,7.14 -3.68,14.03 -11.04,14.03 z"
   id="path808" />
	</g>
	<g
   id="g816">
		<g
   id="g814">
			<path
   class="st17"
   d="m 825.47,2171.84 c 3.75,-3.47 10.97,-5.48 17.16,-9.61 6.19,-4.14 1.02,-8.4 1.02,-8.4 6.36,-2.18 5.67,-5.09 4.86,-7.06 -1.1,-2.67 -8.04,-1.91 -8.04,-1.91 0,0 6.23,-1.38 8.79,-2.51 2.56,-1.13 1.69,-5.6 -2.25,-7.01 -3.94,-1.41 -20,2.55 -20,2.55 0,0 2.62,-1.28 10.54,-5.26 7.92,-3.97 9.66,-7.59 4.99,-9.33 -3.25,-1.21 -9.62,1.32 -21.87,9.55 -9.22,6.19 -8.47,7 -8.47,7 0,0 8.8,36.14 13.27,31.99 z"
   id="path812" />
		</g>
	</g>
</g>
<g
   id="g934"
   transform="translate(-128.04,-117.5)">
	<g
   id="g826">
		<g
   id="g824">
			<g
   id="g822">
				<path
   class="st17"
   d="m 320.74,2046.15 c 0,0 3.43,5.63 3.86,10.22 0.34,3.63 3.4,9.07 4.72,12.07 1.32,3 5.58,16.59 5.74,20.12 0.06,1.45 -3.16,10.55 -2.7,13.47 0.46,2.91 2.12,8.69 -0.49,9.07 -2.62,0.38 -5.58,-4.35 -5.58,-4.35 0,0 0.25,2.68 -1.97,3.71 -4.3,1.99 -6.58,0.24 -6.58,0.24 0,0 -1.59,2.95 -3.58,3.35 -4.39,0.88 -6.55,-0.88 -6.55,-0.88 0,0 -1.94,1.66 -4.97,1.6 -3.88,-0.08 -5.52,-3.43 -5.52,-3.43 0,0 -4.92,0.99 -6.35,-1.3 -1.43,-2.29 -1.18,-4.74 -1.77,-6.82 -0.59,-2.08 -0.14,-20.86 6.24,-34.38 6.38,-13.52 -1.62,-26.71 -1.62,-26.71 z"
   id="path820" />
			</g>
		</g>
	</g>
	<g
   id="g832">
		<g
   id="g830">
			<path
   class="st79"
   d="m 326.97,2104.98 c 0,0 0.44,-16.85 -4,-20.44 -4.43,-3.59 -4.94,2.49 -4.94,2.49 0,0 0.6,-6.01 -4.24,-6.82 -4.85,-0.81 -5.05,6.33 -5.05,6.33 0,0 -0.79,-4.63 -5.88,-3.68 -5.09,0.95 -3.88,6.87 -3.88,6.87 0,0 -4.86,-5.8 -8.02,-0.23 -5.33,9.41 -0.19,20.51 -0.19,20.51 0,0 1.5,2.55 6.35,1.3 0,0 3.24,6.53 10.49,1.83 0,0 7.42,4.09 10.13,-2.46 -0.01,0.01 8.17,3.89 9.23,-5.7 z"
   id="path828" />
		</g>
	</g>
	<path
   class="st80"
   d="m 377.9,1803.43 c 0,0 -28.84,96.14 -38.59,131.6 -3.06,11.12 -10.45,117.33 -11.76,121.61 -1.31,4.28 -37.89,10.13 -37.89,10.13 0,0 4.43,-132.87 4.85,-140.12 0.41,-7.25 40.37,-155.62 51.99,-160.92 8.71,-3.97 13.3,-0.69 24.27,7.46 15.39,11.43 7.13,30.24 7.13,30.24 z"
   id="path834" />
	<path
   class="st46"
   d="m 735.48,1650.39 c 0,0 -0.63,3.73 -1.7,5.23 0,0 -2.16,2.58 -3.59,4.5 -0.45,0.61 -0.83,1.16 -1.04,1.53 -0.87,1.57 -2.31,5.29 -5.45,8.48 -3.14,3.19 -15.39,13.33 -15.39,13.33 l -10.49,-8.91 -10.89,-4.89 c 0,0 6.1,-26.51 8.69,-29.82 0.25,-0.32 0.52,-0.63 0.79,-0.9 2.46,-2.59 5.38,-3.48 6.83,-4.7 0.53,-0.44 6.14,-4.48 8.14,-3.96 2.77,0.72 4.4,2.34 5.04,4.2 0,0 5.37,1.65 7.46,4.8 0,0 5,1.36 6.49,6.02 -0.03,0.01 4.89,1.96 5.11,5.09 z"
   id="path836" />
	<g
   id="g842">
		<g
   id="g840">
			<path
   class="st81"
   d="m 532.01,1829.18 7.45,-2.76 c 0,0 -9.29,-21.82 -13.35,-21.29 -4.67,0.61 -10.51,2.15 -10.51,2.15 z"
   id="path838" />
		</g>
	</g>
	<g
   id="g848">
		<g
   id="g846">
			<path
   class="st82"
   d="m 533.71,1832.94 c -0.95,-0.71 -15.84,-29.27 -15.84,-29.27 l -31.81,4.32 17.19,33.83 z"
   id="path844" />
		</g>
	</g>
	<g
   id="g854">
		<g
   id="g852">
			<path
   class="st83"
   d="m 354.5,2459.84 c 0,0 -2.63,18.25 -2.96,20.99 -0.33,2.74 -29.25,-1.61 -29.25,-1.61 l -2.34,-21.73 c 0,0 30.93,-0.23 34.55,2.35 z"
   id="path850" />
		</g>
	</g>
	<g
   id="g860">
		<g
   id="g858">
			<path
   class="st84"
   d="m 351.85,2478.51 c 0,0 9.16,11 18.03,15.79 8.86,4.79 22.79,6.69 28.03,11.65 3.78,3.58 13.78,19 -23.03,18.69 -36.81,-0.31 -54.56,2.18 -58.5,-3.73 -3.94,-5.91 5.71,-43.64 5.71,-43.64 0,0 8.71,3.14 29.76,1.24 z"
   id="path856" />
		</g>
	</g>
	<g
   id="g866">
		<g
   id="g864">
			<path
   class="st83"
   d="m 561.72,2459.84 c 0,0 -2.63,18.25 -2.96,20.99 -0.33,2.74 -29.25,-1.61 -29.25,-1.61 l -2.34,-21.73 c 0,0 30.94,-0.23 34.55,2.35 z"
   id="path862" />
		</g>
	</g>
	<g
   id="g872">
		<g
   id="g870">
			<path
   class="st84"
   d="m 559.07,2478.51 c 0,0 9.16,11 18.03,15.79 8.87,4.79 41.48,8.73 46.72,13.69 3.78,3.58 10.07,18 -41.72,16.65 -36.8,-0.96 -54.56,2.18 -58.5,-3.73 -3.94,-5.91 5.71,-43.64 5.71,-43.64 0,0 8.21,3.35 29.76,1.24 z"
   id="path868" />
		</g>
	</g>
	<g
   id="g878">
		<g
   id="g876">
			<path
   class="st84"
   d="m 378.45,1990.88 c 0,0 -27.18,43.17 -25.15,82.2 2.03,39.03 -9.85,81.64 -13.94,122.41 -4.55,45.45 -23.18,153.05 -23.85,177.37 -0.68,24.31 2.89,101.95 2.89,101.95 l 37.28,0.85 c 0,0 31.31,-188.11 39.42,-207.31 8.11,-19.19 48.32,-156.03 49.68,-171.39 1.35,-15.36 -66.33,-106.08 -66.33,-106.08 z"
   id="path874" />
		</g>
	</g>
	<g
   id="g884">
		<g
   id="g882">
			<path
   class="st84"
   d="m 521.5,1996.73 c 0,0 20.48,106.97 23.18,130.86 2.7,23.89 4.51,115.6 5.86,130.53 1.35,14.93 12.63,194.91 16.22,217.54 H 519.1 c 0,0 -36.59,-131.17 -36.59,-193.23 0,-62.06 -28.27,-134.92 -46.51,-175.87 -18.25,-40.95 -60.01,-41.92 -71.23,-117.89 0,0 141.54,-16.04 156.73,8.06 z"
   id="path880" />
		</g>
	</g>
	<g
   id="g890">
		<g
   id="g888">
			<path
   class="st17"
   d="m 423.79,1627.88 c 0,0 36.48,-13.62 53.29,14.14 16.82,27.77 15.2,83.35 -3.19,90.19 -18.39,6.84 -46.01,3.26 -55.42,-14.11 -9.41,-17.37 -17.91,-42.49 -17.5,-59.28 0.42,-16.79 13.25,-26.09 22.82,-30.94 z"
   id="path886" />
		</g>
	</g>
	<g
   id="g896">
		<g
   id="g894">
			<path
   class="st17"
   d="m 469.94,1733.48 c 0,0 -1.52,9.85 0.99,14.7 2.51,4.85 -47.26,4.98 -47.26,4.98 0,0 -4.04,-26.39 -11.7,-48.68 -7.65,-22.3 57.97,29 57.97,29 z"
   id="path892" />
		</g>
	</g>
	<g
   id="g902">
		<g
   id="g900">
			<path
   class="st62"
   d="m 411.98,1704.48 c 0,0 3.43,5.67 17.45,3.47 14.02,-2.2 31.12,-20.85 36.98,-22.9 5.85,-2.05 5.91,-5.49 5.91,-5.49 l 3.66,5.35 6.22,0.39 c 0,0 -5.67,-16.69 2.88,-23.49 8.56,-6.81 -8.88,-54.01 -53.84,-38.29 0,0 -34.53,9.52 -33.28,29.16 1.26,19.64 6.29,42.01 14.02,51.8 z"
   id="path898" />
		</g>
	</g>
	<g
   id="g908">
		<g
   id="g906">
			<path
   class="st85"
   d="m 473.88,1747.6 c 0,0 -0.16,-9.27 -4.36,-10.16 -4.2,-0.89 -46.38,-4.94 -51.53,-2.92 v 10.8 c 0,0 9.94,6.11 55.89,2.28 z"
   id="path904" />
		</g>
	</g>
	<g
   id="g914">
		<g
   id="g912">
			<path
   class="st17"
   d="m 471.39,1672.41 c -0.79,-3.3 -9.16,-12.71 -12.37,-2.63 -3.21,10.08 4.85,23.64 9.34,22.48 4.49,-1.16 5.02,-11.49 3.03,-19.85 z"
   id="path910" />
		</g>
	</g>
	<g
   id="g920">
		<g
   id="g918">
			<path
   class="st75"
   d="m 641.26,1857.11 c -0.02,-0.01 -0.04,-0.01 -0.07,0 0.29,0.12 0.33,0.13 0.07,0 z"
   id="path916" />
		</g>
	</g>
	<g
   id="g926">
		<g
   id="g924">
			<path
   class="st80"
   d="m 543.64,1761.63 c -28.92,-3.81 -69.76,-14.04 -69.76,-14.04 l -55.89,-2.28 c 0,0 -51.3,11.29 -71.5,20.42 -1.92,0.86 -1.92,45.76 -7.18,57.54 l 16.75,35.34 c 0,0 9.67,69.99 11.68,101.12 0.92,14.29 -19.95,134 -19.95,134 0,0 22.37,6.59 60.51,10.79 38.15,4.2 133.46,-1.52 134.06,-6.03 0.6,-4.51 -18.46,-167.76 -19.3,-176.22 -1.3,-12.98 4.47,-81.93 4.47,-81.93 8.81,-6.83 86.14,-42.73 107.23,-61.43 5.65,-5.01 29.48,-28.21 36.25,-36.22 23.99,-28.37 43.65,-52.7 46.04,-57.94 2.72,-2.98 -26.06,-18.63 -28.67,-19.5 -2.28,-0.76 -34.71,41.25 -47.19,54.77 -5.56,6.03 -28.7,22.85 -28.7,22.85 0,0 -50.76,19.8 -68.85,18.76 z"
   id="path922" />
		</g>
	</g>
	<g
   id="g932">
		<g
   id="g930">
			<path
   class="st62"
   d="m 413.4,1631.16 c 0,0 -46.51,3.64 -1.43,73.32 z"
   id="path928" />
		</g>
	</g>
</g>
</svg>
